<svg id="kity_svg_6" xmlns="http://www.w3.org/2000/svg" xmlns:xlink="http://www.w3.org/1999/xlink" version="1.1" width="755" height="888" style="background: rgb(251, 251, 251); visibility: visible;" viewBox="0 0 755 888"><defs id="kity_defs_7"><linearGradient id="kity_linearGradient_17" x1="0" y1="0" x2="0" y2="1"><stop id="kity_stop_18" offset="0" stop-color="rgb(255, 255, 255)"></stop><stop id="kity_stop_19" offset="1" stop-color="rgb(204, 204, 204)"></stop></linearGradient><marker id="kity_marker_2" orient="auto" refX="6" refY="0" viewBox="-7 -7 14 14" markerWidth="7" markerHeight="7" markerUnits="userSpaceOnUse"><path id="kity_path_3" fill="rgb(115, 161, 191)" stroke="none" d="M6,0A6,6,0,1,1,-6,0A6,6,0,1,1,6,0"></path></marker></defs><g id="kity_g_8"><g id="minder1" text-rendering="optimize-speed"><g id="minder_connect_group1"><path id="kity_path_55" fill="none" stroke="rgb(115, 161, 191)" stroke-width="1" d="M77,424.5A174.5,309,0,0,1,251.5,115.5"></path><path id="kity_path_77" fill="none" stroke="rgb(115, 161, 191)" stroke-width="1" d="M77,424.5A174.5,26,0,0,0,251.5,450.5"></path><path id="kity_path_134" fill="none" stroke="rgb(115, 161, 191)" stroke-width="1" d="M77,424.5A176.5,355,0,0,0,253.5,779.5"></path><path id="kity_path_198" fill="none" stroke="rgb(115, 161, 191)" stroke-width="1" d="M323.5,115.5C349.5,115.5,349.5,31.5,375.5,31.5"></path><path id="kity_path_199" fill="none" stroke="rgb(115, 161, 191)" stroke-width="1" d="M323.5,115.5C344,115.5,344,110.5,364.5,110.5"></path><path id="kity_path_200" fill="none" stroke="rgb(115, 161, 191)" stroke-width="1" d="M323.5,115.5C345,115.5,345,175.5,366.5,175.5"></path><path id="kity_path_247" fill="none" stroke="rgb(115, 161, 191)" stroke-width="1" d="M421.5,307.5C441.5,307.5,441.5,229.5,461.5,229.5"></path><path id="kity_path_248" fill="none" stroke="rgb(115, 161, 191)" stroke-width="1" d="M421.5,307.5C441.5,307.5,441.5,281.5,461.5,281.5"></path><path id="kity_path_249" fill="none" stroke="rgb(115, 161, 191)" stroke-width="1" d="M421.5,307.5C441.5,307.5,441.5,333.5,461.5,333.5"></path><path id="kity_path_250" fill="none" stroke="rgb(115, 161, 191)" stroke-width="1" d="M421.5,307.5C441.5,307.5,441.5,385.5,461.5,385.5"></path><path id="kity_path_251" fill="none" stroke="rgb(115, 161, 191)" stroke-width="1" d="M323.5,450.5C343.5,450.5,343.5,307.5,363.5,307.5"></path><path id="kity_path_252" fill="none" stroke="rgb(115, 161, 191)" stroke-width="1" d="M421.5,489.5C441.5,489.5,441.5,437.5,461.5,437.5"></path><path id="kity_path_253" fill="none" stroke="rgb(115, 161, 191)" stroke-width="1" d="M421.5,489.5C441.5,489.5,441.5,489.5,461.5,489.5"></path><path id="kity_path_254" fill="none" stroke="rgb(115, 161, 191)" stroke-width="1" d="M421.5,489.5C441.5,489.5,441.5,541.5,461.5,541.5"></path><path id="kity_path_255" fill="none" stroke="rgb(115, 161, 191)" stroke-width="1" d="M323.5,450.5C343.5,450.5,343.5,489.5,363.5,489.5"></path><path id="kity_path_256" fill="none" stroke="rgb(115, 161, 191)" stroke-width="1" d="M433.5,593.5C453.5,593.5,453.5,593.5,473.5,593.5"></path><path id="kity_path_257" fill="none" stroke="rgb(115, 161, 191)" stroke-width="1" d="M323.5,450.5C343.5,450.5,343.5,593.5,363.5,593.5"></path><path id="kity_path_472" fill="none" stroke="rgb(115, 161, 191)" stroke-width="1" d="M325.5,779.5C345.5,779.5,345.5,701.5,365.5,701.5"></path><path id="kity_path_473" fill="none" stroke="rgb(115, 161, 191)" stroke-width="1" d="M325.5,779.5C345.5,779.5,345.5,753.5,365.5,753.5"></path><path id="kity_path_474" fill="none" stroke="rgb(115, 161, 191)" stroke-width="1" d="M325.5,779.5C345.5,779.5,345.5,805.5,365.5,805.5"></path><path id="kity_path_475" fill="none" stroke="rgb(115, 161, 191)" stroke-width="1" d="M325.5,779.5C345.5,779.5,345.5,857.5,365.5,857.5"></path></g><g id="minder_node1"><path id="node_outline1" fill="rgb(115, 161, 191)" stroke="rgb(115, 161, 191)" d="M25.5,404.5h103a5,5,0,0,1,5,5v30a5,5,0,0,1,-5,5h-103a5,5,0,0,1,-5,-5v-30a5,5,0,0,1,5,-5z" stroke-width="3"></path><g id="node_text1" fill="white"><text id="kity_text_22" text-rendering="inherit" font-size="16" dy=".8em" y="414.09999990463257" x="44.5">数据结构</text></g></g><g id="kity_g_14" display="none"><path id="kity_path_15" fill="rgba(0, 92, 153, 0.5)" stroke="none" d="M253.5,713.5h98v20h-98z"></path><path id="kity_path_16" fill="none" stroke="rgb(0, 76, 128)" d="M253.5,713.5L351.5,713.5" stroke-width="1"></path></g><g id="minder_node5" opacity="1"><g id="node_expander4" style="cursor: pointer;"><path id="kity_path_60" fill="white" stroke="gray" d="M252.5,115.5A6,6,0,1,1,240.5,115.5A6,6,0,1,1,252.5,115.5"></path><path id="kity_path_61" fill="none" stroke="gray" d="M242,115.5L251,115.5"></path></g><path id="node_outline5" fill="rgb(238, 243, 246)" stroke="rgb(115, 161, 191)" d="M256.5,102.5h64a3,3,0,0,1,3,3v20a3,3,0,0,1,-3,3h-64a3,3,0,0,1,-3,-3v-20a3,3,0,0,1,3,-3z" stroke-width="1"></path><g id="node_text5" fill="black"><text id="kity_text_57" text-rendering="inherit" font-size="14" dy=".8em" y="106.40000009536743" x="273.5">数组</text></g><g id="node_progress1" display="none"><path id="kity_path_63" fill="#FFED83" stroke="none" d="M268,116A9,9,0,1,1,250,116A9,9,0,1,1,268,116"></path><path id="kity_path_64" fill="#43BC00" stroke="none" d="M259,116"></path><path id="kity_path_65" fill="#8E8E8E" stroke="none" d="M259,109c4.418,0,8,3.582,8,8h1c0,-5.523,-3.477,-10,-9,-10S250,111.477,250,117h1C251,112.582,254.582,109,259,109z"></path><path id="kity_path_67" fill="#EEE" stroke="none" d="M274.812,123.896l-6.75,6.75l-4.5,-4.5L265.25,124.459l2.812,2.803l5.062,-5.053L274.812,123.896z" display="none"></path><path id="kity_path_66" fill="url(#kity_linearGradient_17)" stroke="none" d="M259,106C253.477,106,249,110.477,249,116c0,5.523,4.477,10,10,10s10,-4.477,10,-10C269,110.477,264.523,106,259,106zM259,124c-4.418,0,-8,-3.582,-8,-8s3.582,-8,8,-8s8,3.582,8,8S263.418,124,259,124z"></path></g></g><g id="minder_node7" opacity="1"><g id="node_expander6" style="cursor: pointer;"><path id="kity_path_82" fill="white" stroke="gray" d="M252.5,450.5A6,6,0,1,1,240.5,450.5A6,6,0,1,1,252.5,450.5"></path><path id="kity_path_83" fill="none" stroke="gray" d="M242,450.5L251,450.5"></path></g><path id="node_outline7" fill="rgb(238, 243, 246)" stroke="rgb(115, 161, 191)" d="M256.5,437.5h64a3,3,0,0,1,3,3v20a3,3,0,0,1,-3,3h-64a3,3,0,0,1,-3,-3v-20a3,3,0,0,1,3,-3z" stroke-width="1"></path><g id="node_text7" fill="black"><text id="kity_text_79" text-rendering="inherit" font-size="14" dy=".8em" y="441.40000009536743" x="273.5">链表</text></g></g><g id="minder_node14" opacity="1"><g id="node_expander13" style="cursor: pointer;"><path id="kity_path_139" fill="white" stroke="gray" d="M254.5,779.5A6,6,0,1,1,242.5,779.5A6,6,0,1,1,254.5,779.5"></path><path id="kity_path_140" fill="none" stroke="gray" d="M244,779.5L253,779.5"></path></g><path id="node_outline14" fill="rgb(238, 243, 246)" stroke="rgb(115, 161, 191)" d="M258.5,766.5h64a3,3,0,0,1,3,3v20a3,3,0,0,1,-3,3h-64a3,3,0,0,1,-3,-3v-20a3,3,0,0,1,3,-3z" stroke-width="1"></path><g id="node_text14" fill="black"><text id="kity_text_136" text-rendering="inherit" font-size="14" dy=".8em" y="770.4000000953674" x="275.5">跳表</text></g></g><g id="minder_node6" opacity="1"><g id="node_expander5" style="cursor: pointer;" display="none"><path id="kity_path_74" fill="white" stroke="gray" d="M375.5,31.5A6,6,0,1,1,363.5,31.5A6,6,0,1,1,375.5,31.5"></path><path id="kity_path_75" fill="none" stroke="gray"></path></g><path id="node_outline6" fill="none" stroke="none" d="M380.5,20.5h191a5,5,0,0,1,5,5v12a5,5,0,0,1,-5,5h-191a5,5,0,0,1,-5,-5v-12a5,5,0,0,1,5,-5z" stroke-width="3"></path><g id="node_text6" fill="black"><text id="kity_text_71" text-rendering="inherit" font-size="12" dy=".8em" y="23.700000047683716" x="385.5">随机访问速度快，时间复杂度O(1)</text></g></g><g id="minder_node8" opacity="1"><g id="node_expander7" style="cursor: pointer;" display="none"><path id="kity_path_90" fill="white" stroke="gray" d="M364.5,110.5A6,6,0,1,1,352.5,110.5A6,6,0,1,1,364.5,110.5"></path><path id="kity_path_91" fill="none" stroke="gray"></path></g><path id="node_outline8" fill="none" stroke="none" d="M369.5,99.5h297a5,5,0,0,1,5,5v12a5,5,0,0,1,-5,5h-297a5,5,0,0,1,-5,-5v-12a5,5,0,0,1,5,-5z" stroke-width="3"></path><g id="node_text8" fill="black"><text id="kity_text_87" text-rendering="inherit" font-size="12" dy=".8em" y="102.70000004768372" x="374.5">添加删除前中段需要移动/copy数据，时间复杂度O(n)</text></g></g><g id="minder_node9" opacity="1"><g id="node_expander8" style="cursor: pointer;" display="none"><path id="kity_path_98" fill="white" stroke="gray" d="M366.5,175.5A6,6,0,1,1,354.5,175.5A6,6,0,1,1,366.5,175.5"></path><path id="kity_path_99" fill="none" stroke="gray"></path></g><path id="node_outline9" fill="none" stroke="none" d="M371.5,164.5h181a5,5,0,0,1,5,5v12a5,5,0,0,1,-5,5h-181a5,5,0,0,1,-5,-5v-12a5,5,0,0,1,5,-5z" stroke-width="3"></path><g id="node_text9" fill="black"><text id="kity_text_95" text-rendering="inherit" font-size="12" dy=".8em" y="167.70000004768372" x="376.5">Java中ArrayList基于数组实现的</text></g></g><g id="minder_node20"><g id="node_expander19" style="cursor: pointer;" display="none"><path id="kity_path_194" fill="white" stroke="gray" d="M461.5,229.5A6,6,0,1,1,449.5,229.5A6,6,0,1,1,461.5,229.5"></path><path id="kity_path_195" fill="none" stroke="gray"></path></g><path id="node_outline20" fill="none" stroke="none" d="M466.5,218.5h202a5,5,0,0,1,5,5v12a5,5,0,0,1,-5,5h-202a5,5,0,0,1,-5,-5v-12a5,5,0,0,1,5,-5z" stroke-width="3"></path><g id="node_text20" fill="black"><text id="kity_text_191" text-rendering="inherit" font-size="12" dy=".8em" y="221.70000004768372" x="471.5">只有next指针，结尾处next指向null</text></g></g><g id="minder_node21"><g id="node_expander20" style="cursor: pointer;" display="none"><path id="kity_path_207" fill="white" stroke="gray" d="M461.5,281.5A6,6,0,1,1,449.5,281.5A6,6,0,1,1,461.5,281.5"></path><path id="kity_path_208" fill="none" stroke="gray"></path></g><path id="node_outline21" fill="none" stroke="none" d="M466.5,270.5h216a5,5,0,0,1,5,5v12a5,5,0,0,1,-5,5h-216a5,5,0,0,1,-5,-5v-12a5,5,0,0,1,5,-5z" stroke-width="3"></path><g id="node_text21" fill="black"><text id="kity_text_204" text-rendering="inherit" font-size="12" dy=".8em" y="273.7000000476837" x="471.5">查询是需要逐个遍历，时间复杂度O(n)</text></g></g><g id="minder_node22"><g id="node_expander21" style="cursor: pointer;" display="none"><path id="kity_path_215" fill="white" stroke="gray" d="M461.5,333.5A6,6,0,1,1,449.5,333.5A6,6,0,1,1,461.5,333.5"></path><path id="kity_path_216" fill="none" stroke="gray"></path></g><path id="node_outline22" fill="none" stroke="none" d="M466.5,322.5h180a5,5,0,0,1,5,5v12a5,5,0,0,1,-5,5h-180a5,5,0,0,1,-5,-5v-12a5,5,0,0,1,5,-5z" stroke-width="3"></path><g id="node_text22" fill="black"><text id="kity_text_212" text-rendering="inherit" font-size="12" dy=".8em" y="325.7000000476837" x="471.5">添加和删除时，时间复杂度O(1)</text></g></g><g id="minder_node23"><g id="node_expander22" style="cursor: pointer;" display="none"><path id="kity_path_223" fill="white" stroke="gray" d="M461.5,385.5A6,6,0,1,1,449.5,385.5A6,6,0,1,1,461.5,385.5"></path><path id="kity_path_224" fill="none" stroke="gray"></path></g><path id="node_outline23" fill="none" stroke="none" d="M466.5,374.5h239a5,5,0,0,1,5,5v12a5,5,0,0,1,-5,5h-239a5,5,0,0,1,-5,-5v-12a5,5,0,0,1,5,-5z" stroke-width="3"></path><g id="node_text23" fill="black"><text id="kity_text_220" text-rendering="inherit" font-size="12" dy=".8em" y="377.7000000476837" x="471.5">由于多存储了指针节点，空间损耗比数组大</text></g></g><g id="minder_node10"><g id="node_expander9" style="cursor: pointer;"><path id="kity_path_106" fill="white" stroke="gray" d="M363.5,307.5A6,6,0,1,1,351.5,307.5A6,6,0,1,1,363.5,307.5"></path><path id="kity_path_107" fill="none" stroke="gray" d="M353,307.5L362,307.5"></path></g><path id="node_outline10" fill="none" stroke="none" d="M368.5,296.5h48a5,5,0,0,1,5,5v12a5,5,0,0,1,-5,5h-48a5,5,0,0,1,-5,-5v-12a5,5,0,0,1,5,-5z" stroke-width="3"></path><g id="node_text10" fill="black"><text id="kity_text_103" text-rendering="inherit" font-size="12" dy=".8em" y="299.7000000476837" x="373.5">单链表</text></g></g><g id="minder_node24" opacity="1"><g id="node_expander23" style="cursor: pointer;" display="none"><path id="kity_path_231" fill="white" stroke="gray" d="M461.5,437.5A6,6,0,1,1,449.5,437.5A6,6,0,1,1,461.5,437.5"></path><path id="kity_path_232" fill="none" stroke="gray"></path></g><path id="node_outline24" fill="none" stroke="none" d="M466.5,426.5h83a5,5,0,0,1,5,5v12a5,5,0,0,1,-5,5h-83a5,5,0,0,1,-5,-5v-12a5,5,0,0,1,5,-5z" stroke-width="3"></path><g id="node_text24" fill="black"><text id="kity_text_228" text-rendering="inherit" font-size="12" dy=".8em" y="429.7000000476837" x="471.5">同单链表特性</text></g></g><g id="minder_node18"><g id="node_expander17" style="cursor: pointer;" display="none"><path id="kity_path_178" fill="white" stroke="gray" d="M461.5,489.5A6,6,0,1,1,449.5,489.5A6,6,0,1,1,461.5,489.5"></path><path id="kity_path_179" fill="none" stroke="gray"></path></g><path id="node_outline18" fill="none" stroke="none" d="M466.5,478.5h264a5,5,0,0,1,5,5v12a5,5,0,0,1,-5,5h-264a5,5,0,0,1,-5,-5v-12a5,5,0,0,1,5,-5z" stroke-width="3"></path><g id="node_text18" fill="black"><text id="kity_text_175" text-rendering="inherit" font-size="12" dy=".8em" y="481.7000000476837" x="471.5">同时拥有prev和next指针，分别对应向前和向后</text></g></g><g id="minder_node19"><g id="node_expander18" style="cursor: pointer;" display="none"><path id="kity_path_186" fill="white" stroke="gray" d="M461.5,541.5A6,6,0,1,1,449.5,541.5A6,6,0,1,1,461.5,541.5"></path><path id="kity_path_187" fill="none" stroke="gray"></path></g><path id="node_outline19" fill="none" stroke="none" d="M466.5,530.5h212a5,5,0,0,1,5,5v12a5,5,0,0,1,-5,5h-212a5,5,0,0,1,-5,-5v-12a5,5,0,0,1,5,-5z" stroke-width="3"></path><g id="node_text19" fill="black"><text id="kity_text_183" text-rendering="inherit" font-size="12" dy=".8em" y="533.7000000476837" x="471.5">Java中LinkedList基于双向链表实现的</text></g></g><g id="minder_node12"><g id="node_expander11" style="cursor: pointer;"><path id="kity_path_123" fill="white" stroke="gray" d="M363.5,489.5A6,6,0,1,1,351.5,489.5A6,6,0,1,1,363.5,489.5"></path><path id="kity_path_124" fill="none" stroke="gray" d="M353,489.5L362,489.5"></path></g><path id="node_outline12" fill="none" stroke="none" d="M368.5,478.5h48a5,5,0,0,1,5,5v12a5,5,0,0,1,-5,5h-48a5,5,0,0,1,-5,-5v-12a5,5,0,0,1,5,-5z" stroke-width="3"></path><g id="node_text12" fill="black"><text id="kity_text_120" text-rendering="inherit" font-size="12" dy=".8em" y="481.7000000476837" x="373.5">双链表</text></g></g><g id="minder_node17"><g id="node_expander16" style="cursor: pointer;" display="none"><path id="kity_path_170" fill="white" stroke="gray" d="M473.5,593.5A6,6,0,1,1,461.5,593.5A6,6,0,1,1,473.5,593.5"></path><path id="kity_path_171" fill="none" stroke="gray"></path></g><path id="node_outline17" fill="none" stroke="none" d="M478.5,582.5h59a5,5,0,0,1,5,5v12a5,5,0,0,1,-5,5h-59a5,5,0,0,1,-5,-5v-12a5,5,0,0,1,5,-5z" stroke-width="3"></path><g id="node_text17" fill="black"><text id="kity_text_167" text-rendering="inherit" font-size="12" dy=".8em" y="585.7000000476837" x="483.5">首尾相连</text></g></g><g id="minder_node13"><g id="node_expander12" style="cursor: pointer;"><path id="kity_path_131" fill="white" stroke="gray" d="M363.5,593.5A6,6,0,1,1,351.5,593.5A6,6,0,1,1,363.5,593.5"></path><path id="kity_path_132" fill="none" stroke="gray" d="M353,593.5L362,593.5"></path></g><path id="node_outline13" fill="none" stroke="none" d="M368.5,582.5h60a5,5,0,0,1,5,5v12a5,5,0,0,1,-5,5h-60a5,5,0,0,1,-5,-5v-12a5,5,0,0,1,5,-5z" stroke-width="3"></path><g id="node_text13" fill="black"><text id="kity_text_128" text-rendering="inherit" font-size="12" dy=".8em" y="585.7000000476837" x="373.5">循环链表</text></g></g><g id="kity_g_12" display="none"><path id="kity_path_13" fill="none" stroke="rgb(66, 94, 112)" d="M25.5,404.5h103a5,5,0,0,1,5,5v30a5,5,0,0,1,-5,5h-103a5,5,0,0,1,-5,-5v-30a5,5,0,0,1,5,-5z" stroke-width="5"></path></g><g id="minder_node26" opacity="1"><g id="node_expander25" style="cursor: pointer;" display="none"><path id="kity_path_267" fill="white" stroke="gray" d="M365.5,701.5A6,6,0,1,1,353.5,701.5A6,6,0,1,1,365.5,701.5"></path><path id="kity_path_268" fill="none" stroke="gray"></path></g><path id="node_outline26" fill="none" stroke="none" d="M370.5,690.5h162a5,5,0,0,1,5,5v12a5,5,0,0,1,-5,5h-162a5,5,0,0,1,-5,-5v-12a5,5,0,0,1,5,-5z" stroke-width="3"></path><g id="node_text26" fill="black"><text id="kity_text_264" text-rendering="inherit" font-size="12" dy=".8em" y="693.7000000476837" x="375.5">访问数据时间复杂度O(logn)</text></g></g><g id="minder_node25" opacity="1"><g id="node_expander24" style="cursor: pointer;" display="none"><path id="kity_path_245" fill="white" stroke="gray" d="M365.5,753.5A6,6,0,1,1,353.5,753.5A6,6,0,1,1,365.5,753.5"></path><path id="kity_path_246" fill="none" stroke="gray"></path></g><path id="node_outline25" fill="none" stroke="none" d="M370.5,742.5h276a5,5,0,0,1,5,5v12a5,5,0,0,1,-5,5h-276a5,5,0,0,1,-5,-5v-12a5,5,0,0,1,5,-5z" stroke-width="3"></path><g id="node_text25" fill="black"><text id="kity_text_242" text-rendering="inherit" font-size="12" dy=".8em" y="745.7000000476837" x="375.5">空间复杂度比原始链表更高一些，空间复杂度O(n)</text></g></g><g id="minder_node15" opacity="1"><g id="node_expander14" style="cursor: pointer;" display="none"><path id="kity_path_153" fill="white" stroke="gray" d="M365.5,805.5A6,6,0,1,1,353.5,805.5A6,6,0,1,1,365.5,805.5"></path><path id="kity_path_154" fill="none" stroke="gray"></path></g><path id="node_outline15" fill="none" stroke="none" d="M370.5,794.5h168a5,5,0,0,1,5,5v12a5,5,0,0,1,-5,5h-168a5,5,0,0,1,-5,-5v-12a5,5,0,0,1,5,-5z" stroke-width="3"></path><g id="node_text15" fill="black"><text id="kity_text_150" text-rendering="inherit" font-size="12" dy=".8em" y="797.7000000476837" x="375.5">升维、空间换时间的一种思路</text></g></g><g id="minder_node16"><g id="node_expander15" style="cursor: pointer;" display="none"><path id="kity_path_162" fill="white" stroke="gray" d="M365.5,857.5A6,6,0,1,1,353.5,857.5A6,6,0,1,1,365.5,857.5"></path><path id="kity_path_163" fill="none" stroke="gray"></path></g><path id="node_outline16" fill="none" stroke="none" d="M370.5,846.5h111a5,5,0,0,1,5,5v12a5,5,0,0,1,-5,5h-111a5,5,0,0,1,-5,-5v-12a5,5,0,0,1,5,-5z" stroke-width="3"></path><g id="node_text16" fill="black"><text id="kity_text_159" text-rendering="inherit" font-size="12" dy=".8em" y="849.7000000476837" x="375.5">redis是跳表的实践</text></g></g></g></g></svg>