<svg id="kity_svg_6" xmlns="http://www.w3.org/2000/svg" xmlns:xlink="http://www.w3.org/1999/xlink" version="1.1" width="1113" height="1078" style="background: rgb(251, 251, 251); visibility: visible;" viewBox="0 0 1113 1078"><defs id="kity_defs_7"><linearGradient id="kity_linearGradient_17" x1="0" y1="0" x2="0" y2="1"><stop id="kity_stop_18" offset="0" stop-color="rgb(255, 255, 255)"></stop><stop id="kity_stop_19" offset="1" stop-color="rgb(204, 204, 204)"></stop></linearGradient><marker id="kity_marker_2" orient="auto" refX="6" refY="0" viewBox="-7 -7 14 14" markerWidth="7" markerHeight="7" markerUnits="userSpaceOnUse"><path id="kity_path_3" fill="rgb(115, 161, 191)" stroke="none" d="M6,0A6,6,0,1,1,-6,0A6,6,0,1,1,6,0"></path></marker></defs><g id="kity_g_8"><g id="minder1" text-rendering="geometricPrecision"><g id="minder_connect_group1"><path id="kity_path_31" fill="none" stroke="rgb(115, 161, 191)" stroke-width="1" d="M640.5000182464719,544.5000040158629A207,274,0,0,1,847.5000182464719,270.50000401586294"></path><path id="kity_path_35" fill="none" stroke="rgb(115, 161, 191)" stroke-width="1" d="M640.5000182464719,544.5000040158629A234,307,0,0,0,874.5000182464719,851.5000040158629"></path><path id="kity_path_39" fill="none" stroke="rgb(115, 161, 191)" stroke-width="1" d="M640.5000182464719,544.5000040158629A260,462,0,0,0,380.5000182464719,82.50000401586294"></path><path id="kity_path_49" fill="none" stroke="rgb(115, 161, 191)" stroke-width="1" d="M640.5000182464719,544.5000040158629A429,3,0,0,1,211.50001824647188,547.5000040158629"></path><path id="kity_path_51" fill="none" stroke="rgb(115, 161, 191)" stroke-width="1" d="M640.5000182464719,544.5000040158629A292,207,0,0,0,348.5000182464719,337.50000401586294"></path><path id="kity_path_53" fill="none" stroke="rgb(115, 161, 191)" stroke-width="1" d="M640.5000182464719,544.5000040158629A331,465,0,0,1,309.5000182464719,1009.5000040158629"></path><path id="kity_path_245" fill="none" stroke="rgb(115, 161, 191)" stroke-width="1" d="M946.5000182464719,270.50000401586294C961.5000182464719,270.50000401586294,961.5000182464719,180.50000401586294,976.5000182464719,180.50000401586294L1054.5000182464719,180.50000401586294"></path><path id="kity_path_247" fill="none" stroke="rgb(115, 161, 191)" stroke-width="1" d="M946.5000182464719,270.50000401586294C961.5000182464719,270.50000401586294,961.5000182464719,232.50000401586294,976.5000182464719,232.50000401586294L1055.5000182464719,232.50000401586294"></path><path id="kity_path_255" fill="none" stroke="rgb(115, 161, 191)" stroke-width="1" d="M946.5000182464719,270.50000401586294C961.5000182464719,270.50000401586294,961.5000182464719,284.50000401586294,976.5000182464719,284.50000401586294L1054.5000182464719,284.50000401586294"></path><path id="kity_path_263" fill="none" stroke="rgb(115, 161, 191)" stroke-width="1" d="M946.5000182464719,270.50000401586294C961.5000182464719,270.50000401586294,961.5000182464719,336.50000401586294,976.5000182464719,336.50000401586294L1032.5000182464719,336.50000401586294"></path><path id="kity_path_271" fill="none" stroke="rgb(115, 161, 191)" stroke-width="1" d="M946.5000182464719,270.50000401586294C961.5000182464719,270.50000401586294,961.5000182464719,388.50000401586294,976.5000182464719,388.50000401586294L1043.5000182464719,388.50000401586294"></path><path id="kity_path_301" fill="none" stroke="rgb(115, 161, 191)" stroke-width="1" d="M640.5000182464719,544.5000040158629A229,500,0,0,0,869.5000182464719,1044.500004015863"></path><path id="kity_path_312" fill="none" stroke="rgb(115, 161, 191)" stroke-width="1" d="M640.5000182464719,544.5000040158629A205,0,0,0,1,845.5000182464719,544.5000040158629"></path><path id="kity_path_320" fill="none" stroke="rgb(115, 161, 191)" stroke-width="1" d="M640.5000182464719,544.5000040158629A219,144,0,0,0,859.5000182464719,688.5000040158629"></path><path id="kity_path_335" fill="none" stroke="rgb(115, 161, 191)" stroke-width="1" d="M945.5000182464719,544.5000040158629C960.5000182464719,544.5000040158629,960.5000182464719,558.5000040158629,975.5000182464719,558.5000040158629L1054.5000182464719,558.5000040158629"></path><path id="kity_path_339" fill="none" stroke="rgb(115, 161, 191)" stroke-width="1" d="M308.5000182464719,82.50000401586294C293.5000182464719,82.50000401586294,293.5000182464719,44.50000401586294,278.5000182464719,44.50000401586294L198.50001824647188,44.50000401586294"></path><path id="kity_path_340" fill="none" stroke="rgb(115, 161, 191)" stroke-width="1" d="M308.5000182464719,82.50000401586294C293.5000182464719,82.50000401586294,293.5000182464719,96.50000401586294,278.5000182464719,96.50000401586294L199.50001824647188,96.50000401586294"></path><path id="kity_path_341" fill="none" stroke="rgb(115, 161, 191)" stroke-width="1" d="M308.5000182464719,82.50000401586294C293.5000182464719,82.50000401586294,293.5000182464719,148.50000401586294,278.5000182464719,148.50000401586294L199.50001824647188,148.50000401586294"></path><path id="kity_path_343" fill="none" stroke="rgb(115, 161, 191)" stroke-width="1" d="M959.5000182464719,688.5000040158629C974.5000182464719,688.5000040158629,974.5000182464719,676.5000040158629,989.5000182464719,676.5000040158629L1093.5000182464719,676.5000040158629"></path><path id="kity_path_351" fill="none" stroke="rgb(115, 161, 191)" stroke-width="1" d="M959.5000182464719,688.5000040158629C974.5000182464719,688.5000040158629,974.5000182464719,728.5000040158629,989.5000182464719,728.5000040158629L1093.5000182464719,728.5000040158629"></path><path id="kity_path_359" fill="none" stroke="rgb(115, 161, 191)" stroke-width="1" d="M640.5000182464719,544.5000040158629A368,232,0,0,1,272.5000182464719,776.5000040158629"></path><path id="kity_path_434" fill="none" stroke="rgb(115, 161, 191)" stroke-width="1" d="M139.50001824647188,547.5000040158629C124.50001824647188,547.5000040158629,124.50001824647188,509.50000401586294,109.50001824647188,509.50000401586294L42.50001824647188,509.50000401586294"></path><path id="kity_path_435" fill="none" stroke="rgb(115, 161, 191)" stroke-width="1" d="M139.50001824647188,547.5000040158629C124.50001824647188,547.5000040158629,124.50001824647188,561.5000040158629,109.50001824647188,561.5000040158629L29.500018246471882,561.5000040158629"></path><path id="kity_path_436" fill="none" stroke="rgb(115, 161, 191)" stroke-width="1" d="M139.50001824647188,547.5000040158629C124.50001824647188,547.5000040158629,124.50001824647188,613.5000040158629,109.50001824647188,613.5000040158629L29.500018246471882,613.5000040158629"></path><path id="kity_path_437" fill="none" stroke="rgb(115, 161, 191)" stroke-width="1" d="M138.50001824647188,337.50000401586294C123.50001824647188,337.50000401586294,123.50001824647188,273.50000401586294,108.50001824647188,273.50000401586294L29.500018246471882,273.50000401586294"></path><path id="kity_path_438" fill="none" stroke="rgb(115, 161, 191)" stroke-width="1" d="M138.50001824647188,337.50000401586294C123.50001824647188,337.50000401586294,123.50001824647188,325.50000401586294,108.50001824647188,325.50000401586294L29.500018246471882,325.50000401586294"></path><path id="kity_path_439" fill="none" stroke="rgb(115, 161, 191)" stroke-width="1" d="M138.50001824647188,337.50000401586294C123.50001824647188,337.50000401586294,123.50001824647188,377.50000401586294,108.50001824647188,377.50000401586294L28.500018246471882,377.50000401586294"></path><path id="kity_path_440" fill="none" stroke="rgb(115, 161, 191)" stroke-width="1" d="M138.50001824647188,337.50000401586294C123.50001824647188,337.50000401586294,123.50001824647188,429.50000401586294,108.50001824647188,429.50000401586294L20.500018246471882,429.50000401586294"></path><path id="kity_path_441" fill="none" stroke="rgb(115, 161, 191)" stroke-width="1" d="M214.50001824647188,776.5000040158629C199.50001824647188,776.5000040158629,199.50001824647188,712.5000040158629,184.50001824647188,712.5000040158629L116.50001824647188,712.5000040158629"></path><path id="kity_path_442" fill="none" stroke="rgb(115, 161, 191)" stroke-width="1" d="M214.50001824647188,776.5000040158629C199.50001824647188,776.5000040158629,199.50001824647188,764.5000040158629,184.50001824647188,764.5000040158629L116.50001824647188,764.5000040158629"></path><path id="kity_path_443" fill="none" stroke="rgb(115, 161, 191)" stroke-width="1" d="M214.50001824647188,776.5000040158629C199.50001824647188,776.5000040158629,199.50001824647188,816.5000040158629,184.50001824647188,816.5000040158629L117.50001824647188,816.5000040158629"></path><path id="kity_path_444" fill="none" stroke="rgb(115, 161, 191)" stroke-width="1" d="M214.50001824647188,776.5000040158629C199.50001824647188,776.5000040158629,199.50001824647188,868.5000040158629,184.50001824647188,868.5000040158629L117.50001824647188,868.5000040158629"></path><path id="kity_path_445" fill="none" stroke="rgb(115, 161, 191)" stroke-width="1" d="M253.50001824647188,1009.5000040158629C238.50001824647188,1009.5000040158629,238.50001824647188,997.5000040158629,223.50001824647188,997.5000040158629L156.50001824647188,997.5000040158629"></path><path id="kity_path_446" fill="none" stroke="rgb(115, 161, 191)" stroke-width="1" d="M253.50001824647188,1009.5000040158629C238.50001824647188,1009.5000040158629,238.50001824647188,1049.500004015863,223.50001824647188,1049.500004015863L156.50001824647188,1049.500004015863"></path></g><g id="minder_node1"><path id="node_outline1" fill="rgb(115, 161, 191)" stroke="rgb(115, 161, 191)" d="M562.5000182464719,524.5000040158629h156a5,5,0,0,1,5,5v30a5,5,0,0,1,-5,5h-156a5,5,0,0,1,-5,-5v-30a5,5,0,0,1,5,-5z" stroke-width="3"></path><g id="node_text1" fill="white"><text id="kity_text_22" text-rendering="inherit" font-size="16" dy=".8em" y="534.1000039801002" x="581.5000182464719">数据结构与算法&#xa0;</text></g></g><g id="kity_g_14" display="none"><path id="kity_path_15" fill="rgba(0, 92, 153, 0.5)" stroke="none" d="M85.50001824647188,283.50000401586294h208v20h-208z"></path><path id="kity_path_16" fill="none" stroke="rgb(0, 76, 128)" d="M85.50001824647188,283.50000401586294L293.5000182464719,283.50000401586294" stroke-width="1"></path></g><g id="minder_node2" opacity="1"><g id="node_expander2" style="cursor: pointer;"><path id="kity_path_99" fill="white" stroke="gray" d="M848.500022135675,270.4999999329448A6,6,0,1,1,836.500022135675,270.4999999329448A6,6,0,1,1,848.500022135675,270.4999999329448"></path><path id="kity_path_100" fill="none" stroke="gray" d="M838.000022135675,270.4999999329448L847.000022135675,270.4999999329448"></path></g><path id="node_outline3" fill="rgb(238, 243, 246)" stroke="rgb(115, 161, 191)" d="M852.5000225380063,257.4999999329448h91a3,3,0,0,1,3,3v20a3,3,0,0,1,-3,3h-91a3,3,0,0,1,-3,-3v-20a3,3,0,0,1,3,-3z" stroke-width="1"></path><g id="node_text3" fill="black"><text id="kity_text_59" text-rendering="inherit" font-size="14" dy=".8em" y="261.39999990165234" x="869.5000225380063">排序算法</text></g></g><g id="minder_node4" opacity="1"><g id="node_expander4" style="cursor: pointer;" display="none"><path id="kity_path_105" fill="white" stroke="gray" d="M875.5000225380063,851.5000085905194A6,6,0,1,1,863.5000225380063,851.5000085905194A6,6,0,1,1,875.5000225380063,851.5000085905194"></path><path id="kity_path_106" fill="none" stroke="gray" d="M865.0000225380063,851.5000085905194L874.0000225380063,851.5000085905194"></path></g><path id="node_outline5" fill="rgb(238, 243, 246)" stroke="rgb(115, 161, 191)" d="M879.5000229403377,838.5000085905194h90a3,3,0,0,1,3,3v20a3,3,0,0,1,-3,3h-90a3,3,0,0,1,-3,-3v-20a3,3,0,0,1,3,-3z" stroke-width="1"></path><g id="node_text5" fill="black"><text id="kity_text_63" text-rendering="inherit" font-size="14" dy=".8em" y="842.400008559227" x="896.5000229403377">动态规划</text></g></g><g id="minder_node6" opacity="1"><g id="node_expander9" style="cursor: pointer;"><path id="kity_path_120" fill="white" stroke="gray" d="M391.5000153258443,82.49999713152647A6,6,0,1,1,379.5000153258443,82.49999713152647A6,6,0,1,1,391.5000153258443,82.49999713152647"></path><path id="kity_path_121" fill="none" stroke="gray" d="M381.0000153258443,82.49999713152647L390.0000153258443,82.49999713152647"></path></g><path id="node_outline10" fill="rgb(238, 243, 246)" stroke="rgb(115, 161, 191)" d="M311.5000144764781,69.49999713152647h64a3,3,0,0,1,3,3v20a3,3,0,0,1,-3,3h-64a3,3,0,0,1,-3,-3v-20a3,3,0,0,1,3,-3z" stroke-width="1"></path><g id="node_text10" fill="black"><text id="kity_text_73" text-rendering="inherit" font-size="14" dy=".8em" y="73.39999710023403" x="328.5000144764781">数组</text></g></g><g id="minder_node11" opacity="1"><g id="node_expander10" style="cursor: pointer;"><path id="kity_path_123" fill="white" stroke="gray" d="M222.50001280754805,547.5000040605664A6,6,0,1,1,210.50001280754805,547.5000040605664A6,6,0,1,1,222.50001280754805,547.5000040605664"></path><path id="kity_path_124" fill="none" stroke="gray" d="M212.00001280754805,547.5000040605664L221.00001280754805,547.5000040605664"></path></g><path id="node_outline11" fill="rgb(238, 243, 246)" stroke="rgb(115, 161, 191)" d="M142.50001195818186,534.5000040605664h64a3,3,0,0,1,3,3v20a3,3,0,0,1,-3,3h-64a3,3,0,0,1,-3,-3v-20a3,3,0,0,1,3,-3z" stroke-width="1"></path><g id="node_text11" fill="black"><text id="kity_text_75" text-rendering="inherit" font-size="14" dy=".8em" y="538.400004029274" x="159.50001195818186">链表</text></g></g><g id="minder_node12" opacity="1"><g id="node_expander11" style="cursor: pointer;"><path id="kity_path_126" fill="white" stroke="gray" d="M359.50001484900713,337.5000009313226A6,6,0,1,1,347.50001484900713,337.5000009313226A6,6,0,1,1,359.50001484900713,337.5000009313226"></path><path id="kity_path_127" fill="none" stroke="gray" d="M349.00001484900713,337.5000009313226L358.00001484900713,337.5000009313226"></path></g><path id="node_outline12" fill="rgb(238, 243, 246)" stroke="rgb(115, 161, 191)" d="M141.5000119432807,324.5000009313226h202a3,3,0,0,1,3,3v20a3,3,0,0,1,-3,3h-202a3,3,0,0,1,-3,-3v-20a3,3,0,0,1,3,-3z" stroke-width="1"></path><g id="node_text12" fill="black"><text id="kity_text_77" text-rendering="inherit" font-size="14" dy=".8em" y="328.40000090003014" x="158.5000119432807">stack、queue、set、map</text></g></g><g id="minder_node13" opacity="1"><g id="node_expander13" style="cursor: pointer;"><path id="kity_path_132" fill="white" stroke="gray" d="M320.50001426786184,1009.5000109449029A6,6,0,1,1,308.50001426786184,1009.5000109449029A6,6,0,1,1,320.50001426786184,1009.5000109449029"></path><path id="kity_path_133" fill="none" stroke="gray" d="M310.00001426786184,1009.5000109449029L319.00001426786184,1009.5000109449029"></path></g><path id="node_outline14" fill="rgb(238, 243, 246)" stroke="rgb(115, 161, 191)" d="M256.50001365691423,996.5000109449029h48a3,3,0,0,1,3,3v20a3,3,0,0,1,-3,3h-48a3,3,0,0,1,-3,-3v-20a3,3,0,0,1,3,-3z" stroke-width="1"></path><g id="node_text14" fill="black"><text id="kity_text_81" text-rendering="inherit" font-size="14" dy=".8em" y="1000.4000109136105" x="273.50001365691423">图</text></g></g><g id="kity_g_12" display="none"><path id="kity_path_13" fill="none" stroke="rgb(66, 94, 112)" d="M274.5000182464719,66.50000401586294h59a5,5,0,0,1,5,5v12a5,5,0,0,1,-5,5h-59a5,5,0,0,1,-5,-5v-12a5,5,0,0,1,5,-5z" stroke-width="5"></path></g><g id="minder_node3"><g id="node_expander1" style="cursor: pointer;" display="none"><path id="kity_path_96" fill="white" stroke="gray" d="M986.5000241920352,166.499998383224A6,6,0,1,1,974.5000241920352,166.499998383224A6,6,0,1,1,986.5000241920352,166.499998383224"></path><path id="kity_path_97" fill="none" stroke="gray"></path></g><path id="node_outline2" fill="none" stroke="none" d="M991.5000244304538,155.499998383224h58a5,5,0,0,1,5,5v12a5,5,0,0,1,-5,5h-58a5,5,0,0,1,-5,-5v-12a5,5,0,0,1,5,-5z" stroke-width="3"></path><g id="node_text2" fill="black"><text id="kity_text_57" text-rendering="inherit" font-size="12" dy=".8em" y="158.69999835640192" x="996.5000244304538">冒泡排序</text></g></g><g id="minder_node26"><g id="node_expander25" style="cursor: pointer;" display="none"><path id="kity_path_252" fill="white" stroke="gray" d="M986.5000241920352,218.4999991580844A6,6,0,1,1,974.5000241920352,218.4999991580844A6,6,0,1,1,986.5000241920352,218.4999991580844"></path><path id="kity_path_253" fill="none" stroke="gray"></path></g><path id="node_outline26" fill="none" stroke="none" d="M991.5000244304538,207.4999991580844h59a5,5,0,0,1,5,5v12a5,5,0,0,1,-5,5h-59a5,5,0,0,1,-5,-5v-12a5,5,0,0,1,5,-5z" stroke-width="3"></path><g id="node_text26" fill="black"><text id="kity_text_249" text-rendering="inherit" font-size="12" dy=".8em" y="210.6999991312623" x="996.5000244304538">选择排序</text></g></g><g id="minder_node27"><g id="node_expander26" style="cursor: pointer;" display="none"><path id="kity_path_260" fill="white" stroke="gray" d="M986.5000241920352,270.4999999329448A6,6,0,1,1,974.5000241920352,270.4999999329448A6,6,0,1,1,986.5000241920352,270.4999999329448"></path><path id="kity_path_261" fill="none" stroke="gray"></path></g><path id="node_outline27" fill="none" stroke="none" d="M991.5000244304538,259.4999999329448h58a5,5,0,0,1,5,5v12a5,5,0,0,1,-5,5h-58a5,5,0,0,1,-5,-5v-12a5,5,0,0,1,5,-5z" stroke-width="3"></path><g id="node_text27" fill="black"><text id="kity_text_257" text-rendering="inherit" font-size="12" dy=".8em" y="262.6999999061227" x="996.5000244304538">二分排序</text></g></g><g id="minder_node28"><g id="node_expander27" style="cursor: pointer;" display="none"><path id="kity_path_268" fill="white" stroke="gray" d="M986.5000241920352,322.50000070780516A6,6,0,1,1,974.5000241920352,322.50000070780516A6,6,0,1,1,986.5000241920352,322.50000070780516"></path><path id="kity_path_269" fill="none" stroke="gray"></path></g><path id="node_outline28" fill="none" stroke="none" d="M991.5000244304538,311.50000070780516h36a5,5,0,0,1,5,5v12a5,5,0,0,1,-5,5h-36a5,5,0,0,1,-5,-5v-12a5,5,0,0,1,5,-5z" stroke-width="3"></path><g id="node_text28" fill="black"><text id="kity_text_265" text-rendering="inherit" font-size="12" dy=".8em" y="314.70000068098307" x="996.5000244304538">快排</text></g></g><g id="minder_node29"><g id="node_expander28" style="cursor: pointer;" display="none"><path id="kity_path_276" fill="white" stroke="gray" d="M986.5000241920352,374.50000148266554A6,6,0,1,1,974.5000241920352,374.50000148266554A6,6,0,1,1,986.5000241920352,374.50000148266554"></path><path id="kity_path_277" fill="none" stroke="gray"></path></g><path id="node_outline29" fill="none" stroke="none" d="M991.5000244304538,363.50000148266554h47a5,5,0,0,1,5,5v12a5,5,0,0,1,-5,5h-47a5,5,0,0,1,-5,-5v-12a5,5,0,0,1,5,-5z" stroke-width="3"></path><g id="node_text29" fill="black"><text id="kity_text_273" text-rendering="inherit" font-size="12" dy=".8em" y="366.70000145584345" x="996.5000244304538">堆排序</text></g></g><g id="minder_node32" opacity="1"><g id="node_expander31" style="cursor: pointer;" display="none"><path id="kity_path_306" fill="white" stroke="gray" d="M870.5000224635005,1044.5000114664435A6,6,0,1,1,858.5000224635005,1044.5000114664435A6,6,0,1,1,870.5000224635005,1044.5000114664435"></path><path id="kity_path_307" fill="none" stroke="gray"></path></g><path id="node_outline32" fill="rgb(238, 243, 246)" stroke="rgb(115, 161, 191)" d="M874.5000228658319,1031.5000114664435h92a3,3,0,0,1,3,3v20a3,3,0,0,1,-3,3h-92a3,3,0,0,1,-3,-3v-20a3,3,0,0,1,3,-3z" stroke-width="1"></path><g id="node_text32" fill="black"><text id="kity_text_303" text-rendering="inherit" font-size="14" dy=".8em" y="1035.400011435151" x="891.5000228658319">贪心算法</text></g></g><g id="minder_node33" opacity="1"><g id="node_expander32" style="cursor: pointer;"><path id="kity_path_317" fill="white" stroke="gray" d="M846.5000221058726,544.5000040158629A6,6,0,1,1,834.5000221058726,544.5000040158629A6,6,0,1,1,846.5000221058726,544.5000040158629"></path><path id="kity_path_318" fill="none" stroke="gray" d="M836.0000221058726,544.5000040158629L845.0000221058726,544.5000040158629"></path></g><path id="node_outline33" fill="rgb(238, 243, 246)" stroke="rgb(115, 161, 191)" d="M850.500022508204,531.5000040158629h92a3,3,0,0,1,3,3v20a3,3,0,0,1,-3,3h-92a3,3,0,0,1,-3,-3v-20a3,3,0,0,1,3,-3z" stroke-width="1"></path><g id="node_text33" fill="black"><text id="kity_text_314" text-rendering="inherit" font-size="14" dy=".8em" y="535.4000039845705" x="867.500022508204">查找算法</text></g></g><g id="minder_node34" opacity="1"><g id="node_expander33" style="cursor: pointer;"><path id="kity_path_325" fill="white" stroke="gray" d="M860.5000223144889,688.5000061616302A6,6,0,1,1,848.5000223144889,688.5000061616302A6,6,0,1,1,860.5000223144889,688.5000061616302"></path><path id="kity_path_326" fill="none" stroke="gray" d="M850.0000223144889,688.5000061616302L859.0000223144889,688.5000061616302"></path></g><path id="node_outline34" fill="rgb(238, 243, 246)" stroke="rgb(115, 161, 191)" d="M864.5000227168202,675.5000061616302h92a3,3,0,0,1,3,3v20a3,3,0,0,1,-3,3h-92a3,3,0,0,1,-3,-3v-20a3,3,0,0,1,3,-3z" stroke-width="1"></path><g id="node_text34" fill="black"><text id="kity_text_322" text-rendering="inherit" font-size="14" dy=".8em" y="679.4000061303377" x="881.5000227168202">搜索算法</text></g></g><g id="minder_node35"><g id="node_expander34" style="cursor: pointer;" display="none"><path id="kity_path_333" fill="white" stroke="gray" d="M985.500024177134,544.5000040158629A6,6,0,1,1,973.500024177134,544.5000040158629A6,6,0,1,1,985.500024177134,544.5000040158629"></path><path id="kity_path_334" fill="none" stroke="gray"></path></g><path id="node_outline35" fill="none" stroke="none" d="M990.5000244155526,533.5000040158629h59a5,5,0,0,1,5,5v12a5,5,0,0,1,-5,5h-59a5,5,0,0,1,-5,-5v-12a5,5,0,0,1,5,-5z" stroke-width="3"></path><g id="node_text35" fill="black"><text id="kity_text_330" text-rendering="inherit" font-size="12" dy=".8em" y="536.7000039890409" x="995.5000244155526">二分查找</text></g></g><g id="minder_node7"><g id="node_expander5" style="cursor: pointer;" display="none"><path id="kity_path_108" fill="white" stroke="gray" d="M280.5000136718154,30.499996356666088A6,6,0,1,1,268.5000136718154,30.499996356666088A6,6,0,1,1,280.5000136718154,30.499996356666088"></path><path id="kity_path_109" fill="none" stroke="gray"></path></g><path id="node_outline6" fill="none" stroke="none" d="M203.50001268833876,19.499996356666088h60a5,5,0,0,1,5,5v12a5,5,0,0,1,-5,5h-60a5,5,0,0,1,-5,-5v-12a5,5,0,0,1,5,-5z"></path><g id="node_text6" fill="black"><text id="kity_text_65" text-rendering="inherit" font-size="12" dy=".8em" y="22.699996329843998" x="208.50001268833876">一维数组</text></g></g><g id="minder_node8"><g id="node_expander7" style="cursor: pointer;" display="none"><path id="kity_path_114" fill="white" stroke="gray" d="M280.5000136718154,82.49999713152647A6,6,0,1,1,268.5000136718154,82.49999713152647A6,6,0,1,1,280.5000136718154,82.49999713152647"></path><path id="kity_path_115" fill="none" stroke="gray" d="M270.0000136718154,82.49999713152647L279.0000136718154,82.49999713152647"></path></g><path id="node_outline8" fill="none" stroke="none" d="M204.50001270323992,71.49999713152647h59a5,5,0,0,1,5,5v12a5,5,0,0,1,-5,5h-59a5,5,0,0,1,-5,-5v-12a5,5,0,0,1,5,-5z" stroke-width="3"></path><g id="node_text8" fill="black"><text id="kity_text_69" text-rendering="inherit" font-size="12" dy=".8em" y="74.69999710470438" x="209.50001270323992">二维数组</text></g></g><g id="minder_node10"><g id="node_expander8" style="cursor: pointer;" display="none"><path id="kity_path_117" fill="white" stroke="gray" d="M280.5000136718154,134.49999790638685A6,6,0,1,1,268.5000136718154,134.49999790638685A6,6,0,1,1,280.5000136718154,134.49999790638685"></path><path id="kity_path_118" fill="none" stroke="gray" d="M270.0000136718154,134.49999790638685L279.0000136718154,134.49999790638685"></path></g><path id="node_outline9" fill="none" stroke="none" d="M204.50001270323992,123.49999790638685h59a5,5,0,0,1,5,5v12a5,5,0,0,1,-5,5h-59a5,5,0,0,1,-5,-5v-12a5,5,0,0,1,5,-5z" stroke-width="3"></path><g id="node_text9" fill="black"><text id="kity_text_71" text-rendering="inherit" font-size="12" dy=".8em" y="126.69999787956476" x="209.50001270323992">多维数组</text></g></g><g id="minder_node36"><g id="node_expander35" style="cursor: pointer;" display="none"><path id="kity_path_348" fill="white" stroke="gray" d="M999.5000243857503,662.5000057742A6,6,0,1,1,987.5000243857503,662.5000057742A6,6,0,1,1,999.5000243857503,662.5000057742"></path><path id="kity_path_349" fill="none" stroke="gray"></path></g><path id="node_outline36" fill="none" stroke="none" d="M1004.5000246241689,651.5000057742h84a5,5,0,0,1,5,5v12a5,5,0,0,1,-5,5h-84a5,5,0,0,1,-5,-5v-12a5,5,0,0,1,5,-5z" stroke-width="3"></path><g id="node_text36" fill="black"><text id="kity_text_345" text-rendering="inherit" font-size="12" dy=".8em" y="654.7000057473779" x="1009.5000246241689">深度优先算法</text></g></g><g id="minder_node37"><g id="node_expander36" style="cursor: pointer;" display="none"><path id="kity_path_356" fill="white" stroke="gray" d="M999.5000243857503,714.5000065490603A6,6,0,1,1,987.5000243857503,714.5000065490603A6,6,0,1,1,999.5000243857503,714.5000065490603"></path><path id="kity_path_357" fill="none" stroke="gray"></path></g><path id="node_outline37" fill="none" stroke="none" d="M1004.5000246241689,703.5000065490603h84a5,5,0,0,1,5,5v12a5,5,0,0,1,-5,5h-84a5,5,0,0,1,-5,-5v-12a5,5,0,0,1,5,-5z" stroke-width="3"></path><g id="node_text37" fill="black"><text id="kity_text_353" text-rendering="inherit" font-size="12" dy=".8em" y="706.7000065222383" x="1009.5000246241689">广度优先算法</text></g></g><g id="minder_node38" opacity="1"><g id="node_expander37" style="cursor: pointer;"><path id="kity_path_364" fill="white" stroke="gray" d="M283.5000137165189,776.5000074729323A6,6,0,1,1,271.5000137165189,776.5000074729323A6,6,0,1,1,283.5000137165189,776.5000074729323"></path><path id="kity_path_365" fill="none" stroke="gray" d="M273.0000137165189,776.5000074729323L282.0000137165189,776.5000074729323"></path></g><path id="node_outline38" fill="rgb(238, 243, 246)" stroke="rgb(115, 161, 191)" d="M217.50001307576895,763.5000074729323h50a3,3,0,0,1,3,3v20a3,3,0,0,1,-3,3h-50a3,3,0,0,1,-3,-3v-20a3,3,0,0,1,3,-3z" stroke-width="1"></path><g id="node_text38" fill="black"><text id="kity_text_361" text-rendering="inherit" font-size="14" dy=".8em" y="767.4000074416399" x="234.50001307576895">树</text></g></g><g id="minder_node15"><g id="node_expander14" style="cursor: pointer;" display="none"><path id="kity_path_140" fill="white" stroke="gray" d="M111.50001115351915,495.50000328570604A6,6,0,1,1,99.50001115351915,495.50000328570604A6,6,0,1,1,111.50001115351915,495.50000328570604"></path><path id="kity_path_141" fill="none" stroke="gray"></path></g><path id="node_outline15" fill="none" stroke="none" d="M47.50001036375761,484.50000328570604h47a5,5,0,0,1,5,5v12a5,5,0,0,1,-5,5h-47a5,5,0,0,1,-5,-5v-12a5,5,0,0,1,5,-5z" stroke-width="3"></path><g id="node_text15" fill="black"><text id="kity_text_137" text-rendering="inherit" font-size="12" dy=".8em" y="487.70000325888395" x="52.50001036375761">单链表</text></g></g><g id="minder_node16"><g id="node_expander15" style="cursor: pointer;" display="none"><path id="kity_path_148" fill="white" stroke="gray" d="M111.50001115351915,547.5000040605664A6,6,0,1,1,99.50001115351915,547.5000040605664A6,6,0,1,1,111.50001115351915,547.5000040605664"></path><path id="kity_path_149" fill="none" stroke="gray"></path></g><path id="node_outline16" fill="none" stroke="none" d="M34.500010170042515,536.5000040605664h60a5,5,0,0,1,5,5v12a5,5,0,0,1,-5,5h-60a5,5,0,0,1,-5,-5v-12a5,5,0,0,1,5,-5z" stroke-width="3"></path><g id="node_text16" fill="black"><text id="kity_text_145" text-rendering="inherit" font-size="12" dy=".8em" y="539.7000040337443" x="39.500010170042515">双向链表</text></g></g><g id="minder_node17"><g id="node_expander16" style="cursor: pointer;" display="none"><path id="kity_path_156" fill="white" stroke="gray" d="M111.50001115351915,599.5000048354268A6,6,0,1,1,99.50001115351915,599.5000048354268A6,6,0,1,1,111.50001115351915,599.5000048354268"></path><path id="kity_path_157" fill="none" stroke="gray"></path></g><path id="node_outline17" fill="none" stroke="none" d="M34.500010170042515,588.5000048354268h60a5,5,0,0,1,5,5v12a5,5,0,0,1,-5,5h-60a5,5,0,0,1,-5,-5v-12a5,5,0,0,1,5,-5z" stroke-width="3"></path><g id="node_text17" fill="black"><text id="kity_text_153" text-rendering="inherit" font-size="12" dy=".8em" y="591.7000048086047" x="39.500010170042515">循环链表</text></g></g><g id="minder_node43"><g id="node_expander42" style="cursor: pointer;" display="none"><path id="kity_path_404" fill="white" stroke="gray" d="M110.50001113861799,259.499999769032A6,6,0,1,1,98.50001113861799,259.499999769032A6,6,0,1,1,110.50001113861799,259.499999769032"></path><path id="kity_path_405" fill="none" stroke="gray"></path></g><path id="node_outline43" fill="none" stroke="none" d="M34.500010170042515,248.499999769032h59a5,5,0,0,1,5,5v12a5,5,0,0,1,-5,5h-59a5,5,0,0,1,-5,-5v-12a5,5,0,0,1,5,-5z" stroke-width="3"></path><g id="node_text43" fill="black"><text id="kity_text_401" text-rendering="inherit" font-size="12" dy=".8em" y="251.6999997422099" x="39.500010170042515">先进后出</text></g></g><g id="minder_node44"><g id="node_expander43" style="cursor: pointer;" display="none"><path id="kity_path_412" fill="white" stroke="gray" d="M110.50001113861799,311.5000005438924A6,6,0,1,1,98.50001113861799,311.5000005438924A6,6,0,1,1,110.50001113861799,311.5000005438924"></path><path id="kity_path_413" fill="none" stroke="gray"></path></g><path id="node_outline44" fill="none" stroke="none" d="M34.500010170042515,300.5000005438924h59a5,5,0,0,1,5,5v12a5,5,0,0,1,-5,5h-59a5,5,0,0,1,-5,-5v-12a5,5,0,0,1,5,-5z" stroke-width="3"></path><g id="node_text44" fill="black"><text id="kity_text_409" text-rendering="inherit" font-size="12" dy=".8em" y="303.7000005170703" x="39.500010170042515">先进先出</text></g></g><g id="minder_node45"><g id="node_expander44" style="cursor: pointer;" display="none"><path id="kity_path_420" fill="white" stroke="gray" d="M110.50001113861799,363.50000131875277A6,6,0,1,1,98.50001113861799,363.50000131875277A6,6,0,1,1,110.50001113861799,363.50000131875277"></path><path id="kity_path_421" fill="none" stroke="gray"></path></g><path id="node_outline45" fill="none" stroke="none" d="M33.500010155141354,352.50000131875277h60a5,5,0,0,1,5,5v12a5,5,0,0,1,-5,5h-60a5,5,0,0,1,-5,-5v-12a5,5,0,0,1,5,-5z" stroke-width="3"></path><g id="node_text45" fill="black"><text id="kity_text_417" text-rendering="inherit" font-size="12" dy=".8em" y="355.7000012919307" x="38.500010155141354">值不重复</text></g></g><g id="minder_node46"><g id="node_expander45" style="cursor: pointer;" display="none"><path id="kity_path_428" fill="white" stroke="gray" d="M110.50001113861799,415.50000209361315A6,6,0,1,1,98.50001113861799,415.50000209361315A6,6,0,1,1,110.50001113861799,415.50000209361315"></path><path id="kity_path_429" fill="none" stroke="gray"></path></g><path id="node_outline46" fill="none" stroke="none" d="M25.500010035932064,404.50000209361315h68a5,5,0,0,1,5,5v12a5,5,0,0,1,-5,5h-68a5,5,0,0,1,-5,-5v-12a5,5,0,0,1,5,-5z" stroke-width="3"></path><g id="node_text46" fill="black"><text id="kity_text_425" text-rendering="inherit" font-size="12" dy=".8em" y="407.70000206679106" x="30.500010035932064">Key-Value</text></g></g><g id="minder_node39"><g id="node_expander38" style="cursor: pointer;" display="none"><path id="kity_path_372" fill="white" stroke="gray" d="M186.50001227110624,698.5000063106418A6,6,0,1,1,174.50001227110624,698.5000063106418A6,6,0,1,1,186.50001227110624,698.5000063106418"></path><path id="kity_path_373" fill="none" stroke="gray"></path></g><path id="node_outline39" fill="none" stroke="none" d="M121.50001146644354,687.5000063106418h48a5,5,0,0,1,5,5v12a5,5,0,0,1,-5,5h-48a5,5,0,0,1,-5,-5v-12a5,5,0,0,1,5,-5z" stroke-width="3"></path><g id="node_text39" fill="black"><text id="kity_text_369" text-rendering="inherit" font-size="12" dy=".8em" y="690.7000062838197" x="126.50001146644354">有向树</text></g></g><g id="minder_node40"><g id="node_expander39" style="cursor: pointer;" display="none"><path id="kity_path_380" fill="white" stroke="gray" d="M186.50001227110624,750.5000070855021A6,6,0,1,1,174.50001227110624,750.5000070855021A6,6,0,1,1,186.50001227110624,750.5000070855021"></path><path id="kity_path_381" fill="none" stroke="gray"></path></g><path id="node_outline40" fill="none" stroke="none" d="M121.50001146644354,739.5000070855021h48a5,5,0,0,1,5,5v12a5,5,0,0,1,-5,5h-48a5,5,0,0,1,-5,-5v-12a5,5,0,0,1,5,-5z" stroke-width="3"></path><g id="node_text40" fill="black"><text id="kity_text_377" text-rendering="inherit" font-size="12" dy=".8em" y="742.7000070586801" x="126.50001146644354">无向树</text></g></g><g id="minder_node41"><g id="node_expander40" style="cursor: pointer;" display="none"><path id="kity_path_388" fill="white" stroke="gray" d="M186.50001227110624,802.5000078603625A6,6,0,1,1,174.50001227110624,802.5000078603625A6,6,0,1,1,186.50001227110624,802.5000078603625"></path><path id="kity_path_389" fill="none" stroke="gray"></path></g><path id="node_outline41" fill="none" stroke="none" d="M122.5000114813447,791.5000078603625h47a5,5,0,0,1,5,5v12a5,5,0,0,1,-5,5h-47a5,5,0,0,1,-5,-5v-12a5,5,0,0,1,5,-5z" stroke-width="3"></path><g id="node_text41" fill="black"><text id="kity_text_385" text-rendering="inherit" font-size="12" dy=".8em" y="794.7000078335404" x="127.5000114813447">二叉树</text></g></g><g id="minder_node42"><g id="node_expander41" style="cursor: pointer;" display="none"><path id="kity_path_396" fill="white" stroke="gray" d="M186.50001227110624,854.5000086352229A6,6,0,1,1,174.50001227110624,854.5000086352229A6,6,0,1,1,186.50001227110624,854.5000086352229"></path><path id="kity_path_397" fill="none" stroke="gray"></path></g><path id="node_outline42" fill="none" stroke="none" d="M122.5000114813447,843.5000086352229h47a5,5,0,0,1,5,5v12a5,5,0,0,1,-5,5h-47a5,5,0,0,1,-5,-5v-12a5,5,0,0,1,5,-5z" stroke-width="3"></path><g id="node_text42" fill="black"><text id="kity_text_393" text-rendering="inherit" font-size="12" dy=".8em" y="846.7000086084008" x="127.5000114813447">红黑树</text></g></g><g id="minder_node14"><g id="node_expander12" style="cursor: pointer;" display="none"><path id="kity_path_129" fill="white" stroke="gray" d="M225.50001285225153,983.5000105574727A6,6,0,1,1,213.50001285225153,983.5000105574727A6,6,0,1,1,225.50001285225153,983.5000105574727"></path><path id="kity_path_130" fill="none" stroke="gray"></path></g><path id="node_outline13" fill="none" stroke="none" d="M161.50001206249,972.5000105574727h47a5,5,0,0,1,5,5v12a5,5,0,0,1,-5,5h-47a5,5,0,0,1,-5,-5v-12a5,5,0,0,1,5,-5z" stroke-width="3"></path><g id="node_text13" fill="black"><text id="kity_text_79" text-rendering="inherit" font-size="12" dy=".8em" y="975.7000105306506" x="166.50001206249">有向图</text></g></g><g id="minder_node20"><g id="node_expander19" style="cursor: pointer;" display="none"><path id="kity_path_194" fill="white" stroke="gray" d="M225.50001285225153,1035.500011332333A6,6,0,1,1,213.50001285225153,1035.500011332333A6,6,0,1,1,225.50001285225153,1035.500011332333"></path><path id="kity_path_195" fill="none" stroke="gray"></path></g><path id="node_outline20" fill="none" stroke="none" d="M161.50001206249,1024.500011332333h47a5,5,0,0,1,5,5v12a5,5,0,0,1,-5,5h-47a5,5,0,0,1,-5,-5v-12a5,5,0,0,1,5,-5z" stroke-width="3"></path><g id="node_text20" fill="black"><text id="kity_text_191" text-rendering="inherit" font-size="12" dy=".8em" y="1027.700011305511" x="166.50001206249">无向图</text></g></g></g></g></svg>