<svg id="kity_svg_6" xmlns="http://www.w3.org/2000/svg" xmlns:xlink="http://www.w3.org/1999/xlink" version="1.1" width="1244" height="1083" style="background: rgb(251, 251, 251) none repeat scroll 0% 0%; visibility: visible;" viewBox="0 0 1244 1083"><defs id="kity_defs_7"><linearGradient id="kity_linearGradient_17" x1="0" y1="0" x2="0" y2="1"><stop id="kity_stop_18" offset="0" stop-color="rgb(255, 255, 255)"></stop><stop id="kity_stop_19" offset="1" stop-color="rgb(204, 204, 204)"></stop></linearGradient><marker id="kity_marker_2" orient="auto" refX="6" refY="0" viewBox="-7 -7 14 14" markerWidth="7" markerHeight="7" markerUnits="userSpaceOnUse"><path id="kity_path_3" fill="rgb(115, 161, 191)" stroke="none" d="M6,0A6,6,0,1,1,-6,0A6,6,0,1,1,6,0"></path></marker></defs><g id="kity_g_8"><g id="minder1" text-rendering="optimize-speed"><g id="minder_connect_group1"><path id="kity_path_31" fill="none" stroke="rgb(115, 161, 191)" stroke-width="1" d="M296,644.5A177.5,405,0,0,1,473.5,239.5"></path><path id="kity_path_39" fill="none" stroke="rgb(115, 161, 191)" stroke-width="1" d="M296,644.5A177.5,83,0,0,1,473.5,561.5"></path><path id="kity_path_47" fill="none" stroke="rgb(115, 161, 191)" stroke-width="1" d="M296,644.5A177.5,171,0,0,0,473.5,815.5"></path><path id="kity_path_55" fill="none" stroke="rgb(115, 161, 191)" stroke-width="1" d="M296,644.5A177.5,99,0,0,0,118.5,545.5"></path><path id="kity_path_63" fill="none" stroke="rgb(115, 161, 191)" stroke-width="1" d="M296,644.5A177.5,405,0,0,0,473.5,1049.5"></path><path id="kity_path_71" fill="none" stroke="rgb(115, 161, 191)" stroke-width="1" d="M296,644.5A177.5,339,0,0,0,473.5,983.5"></path><path id="kity_path_79" fill="none" stroke="rgb(115, 161, 191)" stroke-width="1" d="M571.5,815.5C586.5,815.5,586.5,725.5,601.5,725.5L732.5,725.5"></path><path id="kity_path_87" fill="none" stroke="rgb(115, 161, 191)" stroke-width="1" d="M571.5,815.5C586.5,815.5,586.5,847.5,601.5,847.5L785.5,847.5"></path><path id="kity_path_95" fill="none" stroke="rgb(115, 161, 191)" stroke-width="1" d="M571.5,815.5C586.5,815.5,586.5,934.5,601.5,934.5L679.5,934.5"></path><path id="kity_path_103" fill="none" stroke="rgb(115, 161, 191)" stroke-width="1" d="M732.5,725.5C747.5,725.5,747.5,708.5,762.5,708.5L1224.5,708.5"></path><path id="kity_path_120" fill="none" stroke="rgb(115, 161, 191)" stroke-width="1" d="M785.5,847.5C800.5,847.5,800.5,830.5,815.5,830.5L1169.5,830.5"></path><path id="kity_path_129" fill="none" stroke="rgb(115, 161, 191)" stroke-width="1" d="M585.5,983.5C600.5,983.5,600.5,997.5,615.5,997.5L670.5,997.5"></path><path id="kity_path_145" fill="none" stroke="rgb(115, 161, 191)" stroke-width="1" d="M674.5,561.5C689.5,561.5,689.5,523.5,704.5,523.5L794.5,523.5"></path><path id="kity_path_153" fill="none" stroke="rgb(115, 161, 191)" stroke-width="1" d="M674.5,561.5C689.5,561.5,689.5,575.5,704.5,575.5L794.5,575.5"></path><path id="kity_path_161" fill="none" stroke="rgb(115, 161, 191)" stroke-width="1" d="M674.5,561.5C689.5,561.5,689.5,627.5,704.5,627.5L896.5,627.5"></path><path id="kity_path_169" fill="none" stroke="rgb(115, 161, 191)" stroke-width="1" d="M571.5,239.5C586.5,239.5,586.5,45.5,601.5,45.5L679.5,45.5"></path><path id="kity_path_177" fill="none" stroke="rgb(115, 161, 191)" stroke-width="1" d="M571.5,239.5C586.5,239.5,586.5,97.5,601.5,97.5L709.5,97.5"></path><path id="kity_path_185" fill="none" stroke="rgb(115, 161, 191)" stroke-width="1" d="M571.5,239.5C586.5,239.5,586.5,149.5,601.5,149.5L679.5,149.5"></path><path id="kity_path_193" fill="none" stroke="rgb(115, 161, 191)" stroke-width="1" d="M571.5,239.5C586.5,239.5,586.5,201.5,601.5,201.5L679.5,201.5"></path><path id="kity_path_201" fill="none" stroke="rgb(115, 161, 191)" stroke-width="1" d="M571.5,239.5C586.5,239.5,586.5,253.5,601.5,253.5L679.5,253.5"></path><path id="kity_path_209" fill="none" stroke="rgb(115, 161, 191)" stroke-width="1" d="M571.5,239.5C586.5,239.5,586.5,305.5,601.5,305.5L679.5,305.5"></path><path id="kity_path_217" fill="none" stroke="rgb(115, 161, 191)" stroke-width="1" d="M571.5,239.5C586.5,239.5,586.5,357.5,601.5,357.5L679.5,357.5"></path><path id="kity_path_225" fill="none" stroke="rgb(115, 161, 191)" stroke-width="1" d="M571.5,239.5C586.5,239.5,586.5,409.5,601.5,409.5L667.5,409.5"></path><path id="kity_path_233" fill="none" stroke="rgb(115, 161, 191)" stroke-width="1" d="M679.5,45.5C694.5,45.5,694.5,45.5,709.5,45.5L954.5,45.5"></path><path id="kity_path_241" fill="none" stroke="rgb(115, 161, 191)" stroke-width="1" d="M679.5,201.5C694.5,201.5,694.5,201.5,709.5,201.5L966.5,201.5"></path><path id="kity_path_249" fill="none" stroke="rgb(115, 161, 191)" stroke-width="1" d="M679.5,253.5C694.5,253.5,694.5,253.5,709.5,253.5L978.5,253.5"></path><path id="kity_path_257" fill="none" stroke="rgb(115, 161, 191)" stroke-width="1" d="M679.5,357.5C694.5,357.5,694.5,357.5,709.5,357.5L954.5,357.5"></path><path id="kity_path_265" fill="none" stroke="rgb(115, 161, 191)" stroke-width="1" d="M709.5,97.5C724.5,97.5,724.5,97.5,739.5,97.5L1066.5,97.5"></path><path id="kity_path_273" fill="none" stroke="rgb(115, 161, 191)" stroke-width="1" d="M679.5,305.5C694.5,305.5,694.5,305.5,709.5,305.5L961.5,305.5"></path><path id="kity_path_281" fill="none" stroke="rgb(115, 161, 191)" stroke-width="1" d="M679.5,149.5C694.5,149.5,694.5,149.5,709.5,149.5L966.5,149.5"></path><path id="kity_path_289" fill="none" stroke="rgb(115, 161, 191)" stroke-width="1" d="M667.5,409.5C682.5,409.5,682.5,409.5,697.5,409.5L966.5,409.5"></path><path id="kity_path_297" fill="none" stroke="rgb(115, 161, 191)" stroke-width="1" d="M732.5,725.5C747.5,725.5,747.5,760.5,762.5,760.5L987.5,760.5"></path><path id="kity_path_305" fill="none" stroke="rgb(115, 161, 191)" stroke-width="1" d="M785.5,847.5C800.5,847.5,800.5,882.5,815.5,882.5L951.5,882.5"></path><path id="kity_path_313" fill="none" stroke="rgb(115, 161, 191)" stroke-width="1" d="M571.5,239.5C586.5,239.5,586.5,461.5,601.5,461.5L667.5,461.5"></path><path id="kity_path_321" fill="none" stroke="rgb(115, 161, 191)" stroke-width="1" d="M667.5,461.5C682.5,461.5,682.5,461.5,697.5,461.5L943.5,461.5"></path><path id="kity_path_329" fill="none" stroke="rgb(115, 161, 191)" stroke-width="1" d="M543.5,1049.5C558.5,1049.5,558.5,1063.5,573.5,1063.5L735.5,1063.5"></path><path id="kity_path_337" fill="none" stroke="rgb(115, 161, 191)" stroke-width="1" d="M735.5,1063.5C750.5,1063.5,750.5,1063.5,765.5,1063.5L908.5,1063.5"></path><path id="kity_path_345" fill="none" stroke="rgb(115, 161, 191)" stroke-width="1" d="M296,644.5A177.5,33,0,0,0,118.5,611.5"></path><path id="kity_path_353" fill="none" stroke="rgb(115, 161, 191)" stroke-width="1" d="M296,644.5A177.5,33,0,0,1,118.5,677.5"></path><path id="kity_path_361" fill="none" stroke="rgb(115, 161, 191)" stroke-width="1" d="M296,644.5A177.5,99,0,0,1,118.5,743.5"></path></g><g id="minder_node1"><path id="node_outline1" fill="rgb(115, 161, 191)" stroke="rgb(57, 80, 96)" d="M241.5,624.5h109a5,5,0,0,1,5,5v30a5,5,0,0,1,-5,5h-109a5,5,0,0,1,-5,-5v-30a5,5,0,0,1,5,-5z" stroke-width="3"></path><g id="node_text1" fill="white"><text id="kity_text_22" text-rendering="inherit" font-size="16" dy=".8em" y="633.939998626709" x="260.5">算法/自制</text></g></g><g id="kity_g_12"><path id="kity_path_13" fill="none" stroke="none" d="M260.5,644.5h0v0h0z"></path></g><g id="kity_g_14"><path id="kity_path_15" fill="none" stroke="none" d="M260.5,644.5h0v0h0z"></path><path id="kity_path_16" fill="none" stroke="none"></path></g><g id="minder_node2"><g id="node_expander1" style="cursor: pointer;"><path id="kity_path_36" fill="white" stroke="gray" d="M474.5,239.5A6,6,0,1,1,462.5,239.5A6,6,0,1,1,474.5,239.5"></path><path id="kity_path_37" fill="none" stroke="gray" d="M464,239.5L473,239.5"></path></g><path id="node_outline2" fill="rgb(238, 243, 246)" stroke="rgb(115, 161, 191)" d="M478.5,226.5h90a3,3,0,0,1,3,3v20a3,3,0,0,1,-3,3h-90a3,3,0,0,1,-3,-3v-20a3,3,0,0,1,3,-3z" stroke-width="1"></path><g id="node_text2" fill="black"><text id="kity_text_33" text-rendering="inherit" font-size="14" dy=".8em" y="230.2599983215332" x="495.5">排序算法</text></g></g><g id="minder_node3"><g id="node_expander2" style="cursor: pointer;"><path id="kity_path_44" fill="white" stroke="gray" d="M474.5,561.5A6,6,0,1,1,462.5,561.5A6,6,0,1,1,474.5,561.5"></path><path id="kity_path_45" fill="none" stroke="gray" d="M464,561.5L473,561.5"></path></g><path id="node_outline3" fill="rgb(238, 243, 246)" stroke="rgb(115, 161, 191)" d="M478.5,548.5h193a3,3,0,0,1,3,3v20a3,3,0,0,1,-3,3h-193a3,3,0,0,1,-3,-3v-20a3,3,0,0,1,3,-3z" stroke-width="1"></path><g id="node_text3" fill="black"><text id="kity_text_41" text-rendering="inherit" font-size="14" dy=".8em" y="552.2599983215332" x="495.5">安全散列算法(哈希算法）</text></g></g><g id="minder_node4"><g id="node_expander3" style="cursor: pointer;"><path id="kity_path_52" fill="white" stroke="gray" d="M474.5,815.5A6,6,0,1,1,462.5,815.5A6,6,0,1,1,474.5,815.5"></path><path id="kity_path_53" fill="none" stroke="gray" d="M464,815.5L473,815.5"></path></g><path id="node_outline4" fill="rgb(238, 243, 246)" stroke="rgb(115, 161, 191)" d="M478.5,802.5h90a3,3,0,0,1,3,3v20a3,3,0,0,1,-3,3h-90a3,3,0,0,1,-3,-3v-20a3,3,0,0,1,3,-3z" stroke-width="1"></path><g id="node_text4" fill="black"><text id="kity_text_49" text-rendering="inherit" font-size="14" dy=".8em" y="806.2599983215332" x="495.5">查找算法</text></g></g><g id="minder_node5"><g id="node_expander4" style="cursor: pointer;" display="none"><path id="kity_path_60" fill="white" stroke="gray" d="M129.5,545.5A6,6,0,1,1,117.5,545.5A6,6,0,1,1,129.5,545.5"></path><path id="kity_path_61" fill="none" stroke="gray"></path></g><path id="node_outline5" fill="rgb(238, 243, 246)" stroke="rgb(115, 161, 191)" d="M23.5,532.5h90a3,3,0,0,1,3,3v20a3,3,0,0,1,-3,3h-90a3,3,0,0,1,-3,-3v-20a3,3,0,0,1,3,-3z" stroke-width="1"></path><g id="node_text5" fill="black"><text id="kity_text_57" text-rendering="inherit" font-size="14" dy=".8em" y="536.2599983215332" x="40.5">贪心算法</text></g></g><g id="minder_node6"><g id="node_expander5" style="cursor: pointer;"><path id="kity_path_68" fill="white" stroke="gray" d="M474.5,1049.5A6,6,0,1,1,462.5,1049.5A6,6,0,1,1,474.5,1049.5"></path><path id="kity_path_69" fill="none" stroke="gray" d="M464,1049.5L473,1049.5"></path></g><path id="node_outline6" fill="rgb(238, 243, 246)" stroke="rgb(115, 161, 191)" d="M478.5,1036.5h62a3,3,0,0,1,3,3v20a3,3,0,0,1,-3,3h-62a3,3,0,0,1,-3,-3v-20a3,3,0,0,1,3,-3z" stroke-width="1"></path><g id="node_text6" fill="black"><text id="kity_text_65" text-rendering="inherit" font-size="14" dy=".8em" y="1040.2599983215332" x="495.5">递归</text></g></g><g id="minder_node7"><g id="node_expander6" style="cursor: pointer;"><path id="kity_path_76" fill="white" stroke="gray" d="M474.5,983.5A6,6,0,1,1,462.5,983.5A6,6,0,1,1,474.5,983.5"></path><path id="kity_path_77" fill="none" stroke="gray" d="M464,983.5L473,983.5"></path></g><path id="node_outline7" fill="rgb(238, 243, 246)" stroke="rgb(115, 161, 191)" d="M478.5,970.5h104a3,3,0,0,1,3,3v20a3,3,0,0,1,-3,3h-104a3,3,0,0,1,-3,-3v-20a3,3,0,0,1,3,-3z" stroke-width="1"></path><g id="node_text7" fill="black"><text id="kity_text_73" text-rendering="inherit" font-size="14" dy=".8em" y="974.2599983215332" x="495.5">字符串匹配</text></g></g><g id="minder_node8"><g id="node_expander7" style="cursor: pointer;"><path id="kity_path_84" fill="white" stroke="gray" d="M611.5,711.5A6,6,0,1,1,599.5,711.5A6,6,0,1,1,611.5,711.5"></path><path id="kity_path_85" fill="none" stroke="gray" d="M601,711.5L610,711.5"></path></g><path id="node_outline8" fill="none" stroke="none" d="M616.5,700.5h111a5,5,0,0,1,5,5v12a5,5,0,0,1,-5,5h-111a5,5,0,0,1,-5,-5v-12a5,5,0,0,1,5,-5z" stroke-width="3"></path><g id="node_text8" fill="black"><text id="kity_text_81" text-rendering="inherit" font-size="12" dy=".8em" y="703.5800018310547" x="621.5">顺序查找/线性查找</text></g></g><g id="minder_node9"><g id="node_expander8" style="cursor: pointer;"><path id="kity_path_92" fill="white" stroke="gray" d="M611.5,833.5A6,6,0,1,1,599.5,833.5A6,6,0,1,1,611.5,833.5"></path><path id="kity_path_93" fill="none" stroke="gray" d="M601,833.5L610,833.5"></path></g><path id="node_outline9" fill="none" stroke="none" d="M616.5,822.5h164a5,5,0,0,1,5,5v12a5,5,0,0,1,-5,5h-164a5,5,0,0,1,-5,-5v-12a5,5,0,0,1,5,-5z" stroke-width="3"></path><g id="node_text9" fill="black"><text id="kity_text_89" text-rendering="inherit" font-size="12" dy=".8em" y="825.5800018310547" x="621.5">二分查找/折半查找/对分查找</text></g></g><g id="minder_node10"><g id="node_expander9" style="cursor: pointer;" display="none"><path id="kity_path_100" fill="white" stroke="gray" d="M611.5,920.5A6,6,0,1,1,599.5,920.5A6,6,0,1,1,611.5,920.5"></path><path id="kity_path_101" fill="none" stroke="gray"></path></g><path id="node_outline10" fill="none" stroke="none" d="M616.5,909.5h58a5,5,0,0,1,5,5v12a5,5,0,0,1,-5,5h-58a5,5,0,0,1,-5,-5v-12a5,5,0,0,1,5,-5z" stroke-width="3"></path><g id="node_text10" fill="black"><text id="kity_text_97" text-rendering="inherit" font-size="12" dy=".8em" y="912.5800018310547" x="621.5">分块查找</text></g></g><g id="minder_node11"><g id="node_expander10" style="cursor: pointer;" display="none"><path id="kity_path_108" fill="white" stroke="gray" d="M772.5,685.5A6,6,0,1,1,760.5,685.5A6,6,0,1,1,772.5,685.5"></path><path id="kity_path_109" fill="none" stroke="gray"></path></g><path id="node_outline11" fill="none" stroke="none" d="M777.5,665.5h442a5,5,0,0,1,5,5v30a5,5,0,0,1,-5,5h-442a5,5,0,0,1,-5,-5v-30a5,5,0,0,1,5,-5z" stroke-width="3"></path><g id="node_text11" fill="black"><text id="kity_text_105" text-rendering="inherit" font-size="12" dy=".8em" y="668.5800018310547" x="782.5">优点：算法简单，逻辑次序无要求，且不同存储结构均适合（数组和链表都可以）</text><text id="kity_text_118" text-rendering="inherit" font-size="12" dy=".8em" y="686.5800018310547" x="782.5">缺点：asl(平均查找长度太长，时间效率太长</text></g></g><g id="minder_node13"><g id="node_expander12" style="cursor: pointer;" display="none"><path id="kity_path_125" fill="white" stroke="gray" d="M825.5,807.5A6,6,0,1,1,813.5,807.5A6,6,0,1,1,825.5,807.5"></path><path id="kity_path_126" fill="none" stroke="gray"></path></g><path id="node_outline13" fill="none" stroke="none" d="M830.5,787.5h334a5,5,0,0,1,5,5v30a5,5,0,0,1,-5,5h-334a5,5,0,0,1,-5,-5v-30a5,5,0,0,1,5,-5z" stroke-width="3"></path><g id="node_text13" fill="black"><text id="kity_text_122" text-rendering="inherit" font-size="12" dy=".8em" y="790.5800018310547" x="835.5">有点：效率比顺序查找高</text><text id="kity_text_127" text-rendering="inherit" font-size="12" dy=".8em" y="808.5800018310547" x="835.5">缺点：只适用于有序表，且只适用于顺序表，对线性链表无用</text></g></g><g id="minder_node14"><g id="node_expander13" style="cursor: pointer;" display="none"><path id="kity_path_134" fill="white" stroke="gray" d="M625.5,983.5A6,6,0,1,1,613.5,983.5A6,6,0,1,1,625.5,983.5"></path><path id="kity_path_135" fill="none" stroke="gray"></path></g><path id="node_outline14" fill="none" stroke="none" d="M630.5,972.5h35a5,5,0,0,1,5,5v12a5,5,0,0,1,-5,5h-35a5,5,0,0,1,-5,-5v-12a5,5,0,0,1,5,-5z" stroke-width="3"></path><g id="node_text14" fill="black"><text id="kity_text_131" text-rendering="inherit" font-size="12" dy=".8em" y="975.5800018310547" x="635.5">kmp</text></g></g><g id="minder_node16"><g id="node_expander15" style="cursor: pointer;" display="none"><path id="kity_path_150" fill="white" stroke="gray" d="M714.5,509.5A6,6,0,1,1,702.5,509.5A6,6,0,1,1,714.5,509.5"></path><path id="kity_path_151" fill="none" stroke="gray"></path></g><path id="node_outline16" fill="none" stroke="none" d="M719.5,498.5h70a5,5,0,0,1,5,5v12a5,5,0,0,1,-5,5h-70a5,5,0,0,1,-5,-5v-12a5,5,0,0,1,5,-5z" stroke-width="3"></path><g id="node_text16" fill="black"><text id="kity_text_147" text-rendering="inherit" font-size="12" dy=".8em" y="501.5800018310547" x="724.5">除法哈希法</text></g></g><g id="minder_node17"><g id="node_expander16" style="cursor: pointer;" display="none"><path id="kity_path_158" fill="white" stroke="gray" d="M714.5,561.5A6,6,0,1,1,702.5,561.5A6,6,0,1,1,714.5,561.5"></path><path id="kity_path_159" fill="none" stroke="gray"></path></g><path id="node_outline17" fill="none" stroke="none" d="M719.5,550.5h70a5,5,0,0,1,5,5v12a5,5,0,0,1,-5,5h-70a5,5,0,0,1,-5,-5v-12a5,5,0,0,1,5,-5z" stroke-width="3"></path><g id="node_text17" fill="black"><text id="kity_text_155" text-rendering="inherit" font-size="12" dy=".8em" y="553.5800018310547" x="724.5">乘法哈希法</text></g></g><g id="minder_node18"><g id="node_expander17" style="cursor: pointer;" display="none"><path id="kity_path_166" fill="white" stroke="gray" d="M714.5,613.5A6,6,0,1,1,702.5,613.5A6,6,0,1,1,714.5,613.5"></path><path id="kity_path_167" fill="none" stroke="gray"></path></g><path id="node_outline18" fill="none" stroke="none" d="M719.5,602.5h172a5,5,0,0,1,5,5v12a5,5,0,0,1,-5,5h-172a5,5,0,0,1,-5,-5v-12a5,5,0,0,1,5,-5z" stroke-width="3"></path><g id="node_text18" fill="black"><text id="kity_text_163" text-rendering="inherit" font-size="12" dy=".8em" y="605.5800018310547" x="724.5">斐波那契（Fibonacci）哈希法</text></g></g><g id="minder_node19"><g id="node_expander18" style="cursor: pointer;"><path id="kity_path_174" fill="white" stroke="gray" d="M611.5,31.5A6,6,0,1,1,599.5,31.5A6,6,0,1,1,611.5,31.5"></path><path id="kity_path_175" fill="none" stroke="gray" d="M601,31.5L610,31.5"></path></g><path id="node_outline19" fill="none" stroke="none" d="M616.5,20.5h58a5,5,0,0,1,5,5v12a5,5,0,0,1,-5,5h-58a5,5,0,0,1,-5,-5v-12a5,5,0,0,1,5,-5z" stroke-width="3"></path><g id="node_text19" fill="black"><text id="kity_text_171" text-rendering="inherit" font-size="12" dy=".8em" y="23.580001831054688" x="621.5">冒泡排序</text></g></g><g id="minder_node20"><g id="node_expander19" style="cursor: pointer;"><path id="kity_path_182" fill="white" stroke="gray" d="M611.5,83.5A6,6,0,1,1,599.5,83.5A6,6,0,1,1,611.5,83.5"></path><path id="kity_path_183" fill="none" stroke="gray" d="M601,83.5L610,83.5"></path></g><path id="node_outline20" fill="none" stroke="none" d="M616.5,72.5h88a5,5,0,0,1,5,5v12a5,5,0,0,1,-5,5h-88a5,5,0,0,1,-5,-5v-12a5,5,0,0,1,5,-5z" stroke-width="3"></path><g id="node_text20" fill="black"><text id="kity_text_179" text-rendering="inherit" font-size="12" dy=".8em" y="75.58000183105469" x="621.5">希尔排序 shell</text></g></g><g id="minder_node21"><g id="node_expander20" style="cursor: pointer;"><path id="kity_path_190" fill="white" stroke="gray" d="M611.5,135.5A6,6,0,1,1,599.5,135.5A6,6,0,1,1,611.5,135.5"></path><path id="kity_path_191" fill="none" stroke="gray" d="M601,135.5L610,135.5"></path></g><path id="node_outline21" fill="none" stroke="none" d="M616.5,124.5h58a5,5,0,0,1,5,5v12a5,5,0,0,1,-5,5h-58a5,5,0,0,1,-5,-5v-12a5,5,0,0,1,5,-5z" stroke-width="3"></path><g id="node_text21" fill="black"><text id="kity_text_187" text-rendering="inherit" font-size="12" dy=".8em" y="127.58000183105469" x="621.5">归并排序</text></g></g><g id="minder_node22"><g id="node_expander21" style="cursor: pointer;"><path id="kity_path_198" fill="white" stroke="gray" d="M611.5,187.5A6,6,0,1,1,599.5,187.5A6,6,0,1,1,611.5,187.5"></path><path id="kity_path_199" fill="none" stroke="gray" d="M601,187.5L610,187.5"></path></g><path id="node_outline22" fill="none" stroke="none" d="M616.5,176.5h58a5,5,0,0,1,5,5v12a5,5,0,0,1,-5,5h-58a5,5,0,0,1,-5,-5v-12a5,5,0,0,1,5,-5z" stroke-width="3"></path><g id="node_text22" fill="black"><text id="kity_text_195" text-rendering="inherit" font-size="12" dy=".8em" y="179.5800018310547" x="621.5">选择排序</text></g></g><g id="minder_node23"><g id="node_expander22" style="cursor: pointer;"><path id="kity_path_206" fill="white" stroke="gray" d="M611.5,239.5A6,6,0,1,1,599.5,239.5A6,6,0,1,1,611.5,239.5"></path><path id="kity_path_207" fill="none" stroke="gray" d="M601,239.5L610,239.5"></path></g><path id="node_outline23" fill="none" stroke="none" d="M616.5,228.5h58a5,5,0,0,1,5,5v12a5,5,0,0,1,-5,5h-58a5,5,0,0,1,-5,-5v-12a5,5,0,0,1,5,-5z" stroke-width="3"></path><g id="node_text23" fill="black"><text id="kity_text_203" text-rendering="inherit" font-size="12" dy=".8em" y="231.5800018310547" x="621.5">快速排序</text></g></g><g id="minder_node24"><g id="node_expander23" style="cursor: pointer;"><path id="kity_path_214" fill="white" stroke="gray" d="M611.5,291.5A6,6,0,1,1,599.5,291.5A6,6,0,1,1,611.5,291.5"></path><path id="kity_path_215" fill="none" stroke="gray" d="M601,291.5L610,291.5"></path></g><path id="node_outline24" fill="none" stroke="none" d="M616.5,280.5h58a5,5,0,0,1,5,5v12a5,5,0,0,1,-5,5h-58a5,5,0,0,1,-5,-5v-12a5,5,0,0,1,5,-5z" stroke-width="3"></path><g id="node_text24" fill="black"><text id="kity_text_211" text-rendering="inherit" font-size="12" dy=".8em" y="283.5800018310547" x="621.5">基数排序</text></g></g><g id="minder_node25"><g id="node_expander24" style="cursor: pointer;"><path id="kity_path_222" fill="white" stroke="gray" d="M611.5,343.5A6,6,0,1,1,599.5,343.5A6,6,0,1,1,611.5,343.5"></path><path id="kity_path_223" fill="none" stroke="gray" d="M601,343.5L610,343.5"></path></g><path id="node_outline25" fill="none" stroke="none" d="M616.5,332.5h58a5,5,0,0,1,5,5v12a5,5,0,0,1,-5,5h-58a5,5,0,0,1,-5,-5v-12a5,5,0,0,1,5,-5z" stroke-width="3"></path><g id="node_text25" fill="black"><text id="kity_text_219" text-rendering="inherit" font-size="12" dy=".8em" y="335.5800018310547" x="621.5">插入排序</text></g></g><g id="minder_node26"><g id="node_expander25" style="cursor: pointer;"><path id="kity_path_230" fill="white" stroke="gray" d="M611.5,395.5A6,6,0,1,1,599.5,395.5A6,6,0,1,1,611.5,395.5"></path><path id="kity_path_231" fill="none" stroke="gray" d="M601,395.5L610,395.5"></path></g><path id="node_outline26" fill="none" stroke="none" d="M616.5,384.5h46a5,5,0,0,1,5,5v12a5,5,0,0,1,-5,5h-46a5,5,0,0,1,-5,-5v-12a5,5,0,0,1,5,-5z" stroke-width="3"></path><g id="node_text26" fill="black"><text id="kity_text_227" text-rendering="inherit" font-size="12" dy=".8em" y="387.5800018310547" x="621.5">堆排序</text></g></g><g id="minder_node27"><g id="node_expander26" style="cursor: pointer;" display="none"><path id="kity_path_238" fill="white" stroke="gray" d="M719.5,31.5A6,6,0,1,1,707.5,31.5A6,6,0,1,1,719.5,31.5"></path><path id="kity_path_239" fill="none" stroke="gray"></path></g><path id="node_outline27" fill="none" stroke="none" d="M724.5,20.5h225a5,5,0,0,1,5,5v12a5,5,0,0,1,-5,5h-225a5,5,0,0,1,-5,-5v-12a5,5,0,0,1,5,-5z" stroke-width="3"></path><g id="node_text27" fill="black"><text id="kity_text_235" text-rendering="inherit" font-size="12" dy=".8em" y="23.580001831054688" x="729.5">时间复杂度：O(N^2)&#xa0;　　稳定性：稳定</text></g></g><g id="minder_node28"><g id="node_expander27" style="cursor: pointer;" display="none"><path id="kity_path_246" fill="white" stroke="gray" d="M719.5,187.5A6,6,0,1,1,707.5,187.5A6,6,0,1,1,719.5,187.5"></path><path id="kity_path_247" fill="none" stroke="gray"></path></g><path id="node_outline28" fill="none" stroke="none" d="M724.5,176.5h237a5,5,0,0,1,5,5v12a5,5,0,0,1,-5,5h-237a5,5,0,0,1,-5,-5v-12a5,5,0,0,1,5,-5z" stroke-width="3"></path><g id="node_text28" fill="black"><text id="kity_text_243" text-rendering="inherit" font-size="12" dy=".8em" y="179.5800018310547" x="729.5">时间复杂度：O(N^2)&#xa0;　　稳定性：不稳定</text></g></g><g id="minder_node29"><g id="node_expander28" style="cursor: pointer;" display="none"><path id="kity_path_254" fill="white" stroke="gray" d="M719.5,239.5A6,6,0,1,1,707.5,239.5A6,6,0,1,1,719.5,239.5"></path><path id="kity_path_255" fill="none" stroke="gray"></path></g><path id="node_outline29" fill="none" stroke="none" d="M724.5,228.5h249a5,5,0,0,1,5,5v12a5,5,0,0,1,-5,5h-249a5,5,0,0,1,-5,-5v-12a5,5,0,0,1,5,-5z" stroke-width="3"></path><g id="node_text29" fill="black"><text id="kity_text_251" text-rendering="inherit" font-size="12" dy=".8em" y="231.5800018310547" x="729.5">时间复杂度：O(NlogN)&#xa0;　　稳定性：不稳定</text></g></g><g id="minder_node30"><g id="node_expander29" style="cursor: pointer;" display="none"><path id="kity_path_262" fill="white" stroke="gray" d="M719.5,343.5A6,6,0,1,1,707.5,343.5A6,6,0,1,1,719.5,343.5"></path><path id="kity_path_263" fill="none" stroke="gray"></path></g><path id="node_outline30" fill="none" stroke="none" d="M724.5,332.5h225a5,5,0,0,1,5,5v12a5,5,0,0,1,-5,5h-225a5,5,0,0,1,-5,-5v-12a5,5,0,0,1,5,-5z" stroke-width="3"></path><g id="node_text30" fill="black"><text id="kity_text_259" text-rendering="inherit" font-size="12" dy=".8em" y="335.5800018310547" x="729.5">时间复杂度：O(N^2)&#xa0;　　稳定性：稳定</text></g></g><g id="minder_node31"><g id="node_expander30" style="cursor: pointer;" display="none"><path id="kity_path_270" fill="white" stroke="gray" d="M749.5,83.5A6,6,0,1,1,737.5,83.5A6,6,0,1,1,749.5,83.5"></path><path id="kity_path_271" fill="none" stroke="gray"></path></g><path id="node_outline31" fill="none" stroke="none" d="M754.5,72.5h307a5,5,0,0,1,5,5v12a5,5,0,0,1,-5,5h-307a5,5,0,0,1,-5,-5v-12a5,5,0,0,1,5,-5z" stroke-width="3"></path><g id="node_text31" fill="black"><text id="kity_text_267" text-rendering="inherit" font-size="12" dy=".8em" y="75.58000183105469" x="759.5">时间复杂度：通常认为是O(N^1.3) 　　稳定性：不稳定</text></g></g><g id="minder_node32"><g id="node_expander31" style="cursor: pointer;" display="none"><path id="kity_path_278" fill="white" stroke="gray" d="M719.5,291.5A6,6,0,1,1,707.5,291.5A6,6,0,1,1,719.5,291.5"></path><path id="kity_path_279" fill="none" stroke="gray"></path></g><path id="node_outline32" fill="none" stroke="none" d="M724.5,280.5h232a5,5,0,0,1,5,5v12a5,5,0,0,1,-5,5h-232a5,5,0,0,1,-5,-5v-12a5,5,0,0,1,5,-5z" stroke-width="3"></path><g id="node_text32" fill="black"><text id="kity_text_275" text-rendering="inherit" font-size="12" dy=".8em" y="283.5800018310547" x="729.5">时间复杂度：O(d(n+r))　　稳定性：稳定</text></g></g><g id="minder_node33"><g id="node_expander32" style="cursor: pointer;" display="none"><path id="kity_path_286" fill="white" stroke="gray" d="M719.5,135.5A6,6,0,1,1,707.5,135.5A6,6,0,1,1,719.5,135.5"></path><path id="kity_path_287" fill="none" stroke="gray"></path></g><path id="node_outline33" fill="none" stroke="none" d="M724.5,124.5h237a5,5,0,0,1,5,5v12a5,5,0,0,1,-5,5h-237a5,5,0,0,1,-5,-5v-12a5,5,0,0,1,5,-5z" stroke-width="3"></path><g id="node_text33" fill="black"><text id="kity_text_283" text-rendering="inherit" font-size="12" dy=".8em" y="127.58000183105469" x="729.5">时间复杂度：O(NlogN)&#xa0;　　稳定性：稳定</text></g></g><g id="minder_node34"><g id="node_expander33" style="cursor: pointer;" display="none"><path id="kity_path_294" fill="white" stroke="gray" d="M707.5,395.5A6,6,0,1,1,695.5,395.5A6,6,0,1,1,707.5,395.5"></path><path id="kity_path_295" fill="none" stroke="gray"></path></g><path id="node_outline34" fill="none" stroke="none" d="M712.5,384.5h249a5,5,0,0,1,5,5v12a5,5,0,0,1,-5,5h-249a5,5,0,0,1,-5,-5v-12a5,5,0,0,1,5,-5z" stroke-width="3"></path><g id="node_text34" fill="black"><text id="kity_text_291" text-rendering="inherit" font-size="12" dy=".8em" y="387.5800018310547" x="717.5">时间复杂度：O(NlogN)&#xa0;　　稳定性：不稳定</text></g></g><g id="minder_node35"><g id="node_expander34" style="cursor: pointer;" display="none"><path id="kity_path_302" fill="white" stroke="gray" d="M772.5,746.5A6,6,0,1,1,760.5,746.5A6,6,0,1,1,772.5,746.5"></path><path id="kity_path_303" fill="none" stroke="gray"></path></g><path id="node_outline35" fill="none" stroke="none" d="M777.5,735.5h205a5,5,0,0,1,5,5v12a5,5,0,0,1,-5,5h-205a5,5,0,0,1,-5,-5v-12a5,5,0,0,1,5,-5z" stroke-width="3"></path><g id="node_text35" fill="black"><text id="kity_text_299" text-rendering="inherit" font-size="12" dy=".8em" y="738.5800018310547" x="782.5">时间复杂度：O(n) 空间复杂度：o(1)</text></g></g><g id="minder_node36"><g id="node_expander35" style="cursor: pointer;" display="none"><path id="kity_path_310" fill="white" stroke="gray" d="M825.5,868.5A6,6,0,1,1,813.5,868.5A6,6,0,1,1,825.5,868.5"></path><path id="kity_path_311" fill="none" stroke="gray"></path></g><path id="node_outline36" fill="none" stroke="none" d="M830.5,857.5h116a5,5,0,0,1,5,5v12a5,5,0,0,1,-5,5h-116a5,5,0,0,1,-5,-5v-12a5,5,0,0,1,5,-5z" stroke-width="3"></path><g id="node_text36" fill="black"><text id="kity_text_307" text-rendering="inherit" font-size="12" dy=".8em" y="860.5800018310547" x="835.5">时间复杂度：o(lgn)</text></g></g><g id="minder_node37"><g id="node_expander36" style="cursor: pointer;"><path id="kity_path_318" fill="white" stroke="gray" d="M611.5,447.5A6,6,0,1,1,599.5,447.5A6,6,0,1,1,611.5,447.5"></path><path id="kity_path_319" fill="none" stroke="gray" d="M601,447.5L610,447.5"></path></g><path id="node_outline37" fill="none" stroke="none" d="M616.5,436.5h46a5,5,0,0,1,5,5v12a5,5,0,0,1,-5,5h-46a5,5,0,0,1,-5,-5v-12a5,5,0,0,1,5,-5z" stroke-width="3"></path><g id="node_text37" fill="black"><text id="kity_text_315" text-rendering="inherit" font-size="12" dy=".8em" y="439.5800018310547" x="621.5">桶排序</text></g></g><g id="minder_node38"><g id="node_expander37" style="cursor: pointer;" display="none"><path id="kity_path_326" fill="white" stroke="gray" d="M707.5,447.5A6,6,0,1,1,695.5,447.5A6,6,0,1,1,707.5,447.5"></path><path id="kity_path_327" fill="none" stroke="gray"></path></g><path id="node_outline38" fill="none" stroke="none" d="M712.5,436.5h226a5,5,0,0,1,5,5v12a5,5,0,0,1,-5,5h-226a5,5,0,0,1,-5,-5v-12a5,5,0,0,1,5,-5z" stroke-width="3"></path><g id="node_text38" fill="black"><text id="kity_text_323" text-rendering="inherit" font-size="12" dy=".8em" y="439.5800018310547" x="717.5">空间复杂度：O(N+C) 　　稳定性：稳定</text></g></g><g id="minder_node39"><g id="node_expander38" style="cursor: pointer;"><path id="kity_path_334" fill="white" stroke="gray" d="M583.5,1049.5A6,6,0,1,1,571.5,1049.5A6,6,0,1,1,583.5,1049.5"></path><path id="kity_path_335" fill="none" stroke="gray" d="M573,1049.5L582,1049.5"></path></g><path id="node_outline39" fill="none" stroke="none" d="M588.5,1038.5h142a5,5,0,0,1,5,5v12a5,5,0,0,1,-5,5h-142a5,5,0,0,1,-5,-5v-12a5,5,0,0,1,5,-5z" stroke-width="3"></path><g id="node_text39" fill="black"><text id="kity_text_331" text-rendering="inherit" font-size="12" dy=".8em" y="1041.5800018310547" x="593.5">斐波那契数列的递归实现</text></g></g><g id="minder_node40"><g id="node_expander39" style="cursor: pointer;" display="none"><path id="kity_path_342" fill="white" stroke="gray" d="M775.5,1049.5A6,6,0,1,1,763.5,1049.5A6,6,0,1,1,775.5,1049.5"></path><path id="kity_path_343" fill="none" stroke="gray"></path></g><path id="node_outline40" fill="none" stroke="none" d="M780.5,1038.5h123a5,5,0,0,1,5,5v12a5,5,0,0,1,-5,5h-123a5,5,0,0,1,-5,-5v-12a5,5,0,0,1,5,-5z" stroke-width="3"></path><g id="node_text40" fill="black"><text id="kity_text_339" text-rendering="inherit" font-size="12" dy=".8em" y="1041.5800018310547" x="785.5">时间复杂度是O(2^n)</text></g></g><g id="minder_node41"><g id="node_expander40" style="cursor: pointer;" display="none"><path id="kity_path_350" fill="white" stroke="gray" d="M129.5,611.5A6,6,0,1,1,117.5,611.5A6,6,0,1,1,129.5,611.5"></path><path id="kity_path_351" fill="none" stroke="gray"></path></g><path id="node_outline41" fill="rgb(238, 243, 246)" stroke="rgb(115, 161, 191)" d="M23.5,598.5h90a3,3,0,0,1,3,3v20a3,3,0,0,1,-3,3h-90a3,3,0,0,1,-3,-3v-20a3,3,0,0,1,3,-3z" stroke-width="1"></path><g id="node_text41" fill="black"><text id="kity_text_347" text-rendering="inherit" font-size="14" dy=".8em" y="602.2599983215332" x="40.5">分治算法</text></g></g><g id="minder_node42"><g id="node_expander41" style="cursor: pointer;" display="none"><path id="kity_path_358" fill="white" stroke="gray" d="M129.5,677.5A6,6,0,1,1,117.5,677.5A6,6,0,1,1,129.5,677.5"></path><path id="kity_path_359" fill="none" stroke="gray"></path></g><path id="node_outline42" fill="rgb(238, 243, 246)" stroke="rgb(115, 161, 191)" d="M23.5,664.5h90a3,3,0,0,1,3,3v20a3,3,0,0,1,-3,3h-90a3,3,0,0,1,-3,-3v-20a3,3,0,0,1,3,-3z" stroke-width="1"></path><g id="node_text42" fill="black"><text id="kity_text_355" text-rendering="inherit" font-size="14" dy=".8em" y="668.2599983215332" x="40.5">回溯算法</text></g></g><g id="minder_node43"><g id="node_expander42" style="cursor: pointer;" display="none"><path id="kity_path_366" fill="white" stroke="gray" d="M129.5,743.5A6,6,0,1,1,117.5,743.5A6,6,0,1,1,129.5,743.5"></path><path id="kity_path_367" fill="none" stroke="gray"></path></g><path id="node_outline43" fill="rgb(238, 243, 246)" stroke="rgb(115, 161, 191)" d="M23.5,730.5h90a3,3,0,0,1,3,3v20a3,3,0,0,1,-3,3h-90a3,3,0,0,1,-3,-3v-20a3,3,0,0,1,3,-3z" stroke-width="1"></path><g id="node_text43" fill="black"><text id="kity_text_363" text-rendering="inherit" font-size="14" dy=".8em" y="734.2599983215332" x="40.5">动态规划</text></g></g></g></g></svg>